<?xml version="1.0" encoding="UTF-8"?>
<svg id="Layer_1" data-name="Layer 1" xmlns="http://www.w3.org/2000/svg" viewBox="0 0 102.53 105.77">
  <defs>
    <style>
      :root {
        color-scheme: light dark;
      }

      .cls-1 {
        fill: #755239;
        fill-rule: evenodd;
      }

      @media (prefers-color-scheme: dark) {
        .cls-1 {
          fill: #fff;
        }
      }
    </style>
  </defs>
  <path class="cls-1" d="M42.51.01c.18.24.49.59.15.92.63-.08.65-.77,1.53-.61.22.45-.12.52.15.92.64-.02.77-.55,1.22-.76.89.61,2.4-.2,3.2.61.55-.15,1.11-.25,1.67-.3.35-.38.62-1.07,1.37-.61.12.57-.58.33-.61.76.82-.44,1.44.17,1.98.46,1.02-.61,2.36.75,3.2-.15-.67-.3-1.91-.02-2.29-.61-.68-.12-.91.2-1.52.15-.15-1.12,1.25-.68,2.13-.77,1.32.61,3.44.41,4.88.92.57.12.73-.19,1.22-.15.79,1.19,3.67.29,4.42,1.52.36,0,.45-.26.92-.15.71.5,1.58.72,2.44.61.33.3.77.46,1.22.46.08.23.23.38.3.61h.92c1.38,1.27,3.78,1.5,5.03,2.9.53-.12.59.23,1.07.15.2.57.74.79,1.37.91.19.32.42.6.61.92.36-.06.33.28.76.15.48.7,1.18,1.24,1.98,1.52.04.73.87.65,1.07,1.22.47.1.94.25,1.37.46.47.5.79,1.14,1.22,1.68.2.21.72.09.91.31-.06.37.28.33.15.76,1.63,1.06,2.52,2.86,4.11,3.96.08.53.41.81.46,1.37.3.61,1.12.71,1.53,1.22-.09.92.58,1.73,1.5,1.82.06,0,.12,0,.17,0-.34,1.5.8,1.53,1.52,1.98-.61,1.26.84,1.53.91,2.59.07.48-.19.62-.46.76.46.55,1.14,1.65.46,2.44-.03.53.54.48.76.76.01.7.44.98.3,1.83.49.25.95.56,1.37.91-.25,1.2,1.19,1.71.3,2.59-.11.57.58.33.61.76.14.6.19,1.21.15,1.83.15.61.65.88.91,1.37-.28.86.35,1.03,0,1.83.04.58.48.74.61,1.22.09.49-.1.71-.15,1.07.17.97.96,2.35.3,3.2.15.5.25,1.01.31,1.52.03.44-.04.77-.31.91.65,1.24.19,3.06.46,4.42.12.53-.23.59-.15,1.07-.1.56.33.58.3,1.07-.55.26-.29,1.34-.76,1.68.22.38.22.84,0,1.22-.08.54.54.38.46.92-.14,1.34-1.17,1.77-1.07,3.35-.1.51-.47.75-.61,1.22-.08.68.02,1.36.3,1.98-.28.23-.38.63-.76.76.1.55-.07,1.12-.46,1.52-.11.6-.16,1.21-.15,1.83-.29.58-.49,1.19-.61,1.83-.33.28-.63.59-.91.91.01.24-.07.58.15.61-.52.5-.66,1.38-1.22,1.83.11.47-.26.45-.15.91-.44.07-.36.65-.76.76.07,1.03-.78,1.15-.76,2.13-.42.19-.44.78-.92.92.05.49-.19.96-.61,1.22-.33.28-.28.94-.76,1.07-.38.75-.9,1.42-1.53,1.98-.02.54-.43.68-.46,1.22-.56.1-.74.58-1.22.76.06.67-.43.78-.46,1.37-.67.37-1.29.83-1.83,1.37-.57.09-.96-.39-1.37,0-.11.52.56.25.61.61-.22.9-1.15,1.08-1.53,1.83-.49-.14-.48.24-.61.46-.27.02-.32-.18-.61-.15-.24.32-.55.57-.76.92-.32-.07-.4.1-.61.15-.68.64-1.46,1.18-2.13,1.83-.67,0-.82.5-1.37.61,0,.36.26.45.15.91-.65.47-1.34.89-1.98,1.37-.39.68-1.46.67-1.83,1.37-.91-.15-1,.52-1.83.46-.46.25-.66.76-1.22.91-.43-.08-.84-.24-1.22-.46-.81.16-.93,1-1.37,1.52-.61.1-.87-.14-1.37-.15-.66.33-1.39.49-2.13.46-.79.12-1.06.77-2.14.61-.38.29-.84.48-1.22.76-.86.11-1.72.16-2.59.15-.44.13-.85.34-1.22.61-1.06-.11-2.15.45-3.05,0-.42.24-.89.34-1.37.31-.2-.67.73-.62.3-1.07-.77-.11-.76.56-1.37.61-.48.07-.6-.22-.91-.3-1,.59-2.13.09-3.2.61-.67-.75-2.65-.19-3.5-.76-.98.05-1.67.25-2.13-.46-.02-.38.24-.47.3-.76.63-.08.67.44,1.37.3.5.04.32-.59.76-.61,1.42.34,2.49-.68,4.27-.46.38-.08.75-.24,1.07-.46.43-.13.39.21.76.15.43-.07.85-.23,1.22-.46,2.34.05,3.43-1.14,5.64-1.22,1.1-.57,2.52-.83,3.2-1.83.48-.07.54.28,1.07.15,1.57-.61,3.19-1.18,4.72-1.83.36-.2.63-.53.76-.92.26.06.54,0,.76-.15,1.3-1.28,2.86-2.27,4.57-2.89.56-.31.61-1.12,1.37-1.22.1-.33.25-.64.46-.91.29-.14.6-.25.92-.3.16-.51-.05-.52.15-1.07.94-.17,1.26-.98,2.13-1.22.43-1.25,1.52-1.83,2.29-2.74-.08-.89.52-1.11.3-2.13.72-.44,1.4-.95,2.01-1.53.06-.29-.06-.59-.3-.76.74-.84.73-2.42,1.67-3.05.22-.82.58-1.59,1.06-2.29v-1.22c.31-.46.77-.75,1.07-1.22,0-1.04.32-2.05.92-2.89.36-.09,1.1.19,1.22-.15.28-.84-.97-.15-.91-.76-.29-1.15.87-.86,1.07-1.52.11-.52-.56-.25-.61-.61.25-.73.35-1.51.3-2.28.46-.1.3-.82.76-.92.09-.41.64-.38.61-.91.19-.7-.53-.48-.61-.92-.18-1.45.34-2.19.31-3.5-.07-.48.41-.4.46-.76-.47-.45-.33-1.5-.76-1.98.16-.66.11-1.35-.15-1.98.04-.47.33-.69.46-1.07-.26-1.02.25-2.68-.61-3.66.04-.88.4-.95.15-1.83-.34-.77-.85-1.39-1.22-2.13-.29-.29.09-.28,0-.76-.19-.44-.45-.85-.76-1.22.27-1.64-.65-2.09-.76-3.35-.2-.4-.81-.41-.92-.92.6-2.09-.82-3.16-1.83-4.11v-.92c-.51-.86-1.49-1.25-1.83-2.28-.31-.15-.6-.31-.91-.46-.08-.84.01-1.51.46-1.83-.26-.5-.4.4-.91.15-.38-.78-1.36-.97-1.22-2.28-.68-.37-1.4-.68-2.13-.91-.18-.73.46-1.14.15-1.52-.35-.28-1.16.22-1.53-.3-.45-.39.39-.74,0-1.07-.43-1.04-2.31-.63-3.2-1.22.02-.73-.77-.66-.61-1.52-.12-.39-.63-.39-.92-.61-.41-.45-.7-1.02-1.37-1.22-.56.34.54.7,0,1.07-1.07-.04-1.45-.79-2.14-1.22.38-.79-.45-1.65-1.07-1.37-.16.77.9.32.76,1.07-1.17.83-1.89-1.06-3.35-.92-.17-.28-.59-.32-.76-.61-.85-.01-1.28-.38-1.98-.15-.15-.46-.48-.85-.92-1.07h-1.21c-2.08-.63-4.23-1.04-6.4-1.22-.48-.07-.34.47-.91.3-.86-.3-1.97-.37-2.9-.61-1.12.41-2.81.24-4.11.46-.57.39-1.52.41-1.98.91-2.12.01-4.09.18-5.03,1.37-.46-.05-.93,0-1.37.15-.5.23-.92.6-1.22,1.07-1.08.09-1.25,1.08-2.44,1.07-.34.62-1.24.69-1.83,1.07-.62.34-.67,1.26-1.37,1.52-.48.16-1.37-.19-1.83.31-.27.51.1.78,0,1.52-.39.05-.76.21-1.07.46-1.52,1.63-3.16,3.14-4.72,4.72-.32,1.31-1.24,2.01-1.98,2.9-.42.23.27.62-.15.76-.19.57-.77.76-1.07,1.22.17,1.14-.66,1.27-.76,2.13-.11.56.26.65.15,1.22-.22.15-.5.21-.76.15.42.91-.78,1.16-1.07,1.83.02,1.29-.91,1.63-.61,3.2-.25.31-.32.8-.61,1.07.14,1.51-.52,2.22-.3,3.81-.02.48.4.51.3,1.07.1.56-.33.58-.3,1.07-.16.83.43,1.52,0,2.13.31.61.14,1.69.61,2.13-.36.38,0,.9,0,1.37.23.74.54,1.46.91,2.13v1.22c.66,1.98,1.16,4.12,2.59,5.33-.13.43.22.39.15.76.59,1.09,1.36,2.07,2.28,2.89.21.97.82,1.8,1.68,2.29.15.66.74.89.91,1.52.82.6,1.5,1.34,2.29,1.98.78.6,1.59,1.16,2.44,1.68.05.36.53.28.46.76,1.02.45,1.99,1.02,2.89,1.68,1.15.07,1.45.99,2.74.91,1.02.91,2.81,1.05,4.12,1.68.67.11.86-.26,1.52-.15.45.1.87.31,1.22.61,1.76.04,4.32.49,5.79-.15.27-.02.32.19.61.15.91-.51,2.51-.33,3.35-.91,1.37.25,1.76-.47,2.89-.46.3-.11.41-.41.46-.76.92-.05,1.25-.68,1.98-.91.18-.18.34-.39.46-.61.98-.27,1.84-.86,2.44-1.68,1.68-.25,2.23-1.63,3.35-2.44.47-.11.45.26.91.15.66-.15.42-.96.31-1.52.32-.21.54-.54.61-.92.29-.16.54-.37.76-.61.04-.52.14-1.03.3-1.52.28-.2.59-.36.91-.46-.43-1.17.32-1.99.76-2.74-.49-1.61.4-3.01.92-4.12-.15-.63-.35-1.24-.61-1.83.43-1.68-.45-2.47-.61-3.96-.07-.58.54-.48.76-.76.14-.91-.83-.7-1.37-.91-.07-1.1-.99-1.34-.91-2.59-.4-.21-.42-.8-.76-1.07-.67.04-.46.96-.76,1.37-.61.2-.83.8-1.07,1.37.13.57.21,1.21,1.07,1.06.09.5-.11.71-.15,1.07.14.62.85.67,1.07,1.22.66.05.38-.84,1.07-.76.19.7.29,1.41.31,2.13-.22.15-.5.21-.76.15.2,1.42-.84,1.6-1.07,2.59.33.09.65.24.92.46.33-.33.24-1.08.92-1.07.68-.02.63.69.61,1.37-.11.61-.67.75-.92,1.22.09.32.32.49.46.76-.68,1.15-.63,3.03-1.68,3.81.08.48-.27.54-.15,1.07-.2.06-.33.25-.3.46-.68.08-.72.8-1.37.91-.6.09-.18-.84-.92-.61-.49.61.58.67.61,1.22-.08.73-.6,1.03-1.07,1.37-.07.54-.51.7-.61,1.22-.48.07-.94.23-1.37.45-.08.48.28.54.15,1.07-.37-.06-.33.28-.76.15-.42.29-.78.65-1.06,1.07-.57.18-1.09.5-1.53.91-.46.36-1.34.29-1.68.76-.27.02-.32-.19-.61-.15-1.35.83-3.25,1.12-4.72,1.83-.62,0-1.24.1-1.83.31-.99-.12-2.76-.4-3.5.15-.35.12-.51-.24-.92-.31-1.34-.22-3.33.2-4.11-.61-.53-.12-.59.23-1.07.15-.53-.29-1.12-.51-1.37-1.07-.46.05-.54.47-1.22.31-1.03-.24-1.36-1.18-2.74-1.07-.24-.37-.55-.68-.91-.92h-1.22c-.31-.34-.52-.76-.61-1.22-.63-.36-1.3-.66-1.98-.92-.39-.85-1.1-1.51-1.98-1.83-.72-1.09-1.65-2.02-2.74-2.74,0-.36-.26-.45-.15-.92-.94-.94-1.38-2.38-2.44-3.2-.06-.74-.45-1.42-1.07-1.83-.11-1.31-.97-1.88-1.07-3.2-.37-.57-.68-1.19-.91-1.83-.04-.41.01-.83.15-1.21-.02-.28-.52-.09-.61-.3.25-.52.36-1.1.31-1.68-.11-.47-.27-.93-.46-1.37.11-1.27.11-2.54,0-3.81.54-1.48-.33-2.52-.3-3.96.15-.67.78-.84,1.07-1.37-.24-.87.59-1.24.15-1.83.1-.56.56-.76.92-1.07.3-1.78.17-3.48,1.52-4.42-.2-1.01.64-.99.46-1.98.45-.32.72-.82.76-1.37.68-.29.75-1.18,1.67-1.22v-1.07c.84-.51,1.44-1.33,1.68-2.28,1.25-.22,1.37-1.58,2.59-1.83.13-.38.42-.6.46-1.07.74-.22.94-.99,1.83-1.07.55-.67.82-1.62,1.83-1.83.1-.33.26-.64.46-.91.47-.11.29.42.76.3.64-.07.73-.69,1.07-1.07,2.22.28,1.86-2,4.11-1.68.56-.2.49-1.03.91-1.37,1.01-.13,2.04-.13,3.05,0,.61.05.41-.7.92-.76.48.03,1.12-.1,1.37.15.58-.18.71-.81,1.67-.61.36.23.54.65.46,1.07.47-.11.56.16.91.15.46-.45-.38-.39-.15-1.07.76-.03,1.51.18,2.13.61.34-.33-.13-.52,0-1.07.75-.35,1.12-.16,1.98,0,.48.07.6-.22.92-.3,1.49.14,2.77.48,4.27.61,1.17.49,2.4.79,3.66.91.41.35,1.06.47,1.37.92.76.1,1.48.36,2.13.76.43.13.4-.22.76-.15.49-.03.37.55.61.76.89-.03,1.11.62,1.68.92.55.31,1.25.48,1.52,1.07.61-.05.77.35,1.37.31.52.75,1.31,1.23,1.83,1.98.51,0,.52.5,1.07.46.52.91,1.62,1.22,2.13,2.13.43-.13.39.21.76.15.35.87,1.31,1.12,1.52,2.13,1.32.76,1.81,2.36,3.05,3.2.15.74.59,1.4,1.21,1.82-.05.46.12.91.46,1.22-.1.41-.44.58-.61.91.24.83.1,2.03.91,2.29.11-.53-.46-1.15,0-1.52.62-.39.8.77,1.22,1.07.2.59.84,1.09.46,1.83-.66.1-.84-.28-1.07-.61-.28.53-.92.71-1.07,1.37.09.83.75,1.08.76,1.98.29-.16.04-.88.46-.91.79.12.54,1.29,1.22,1.52-.14-.39-.19-.81-.15-1.22.11-.58-.62-.73-.15-1.22,1.04-.08.92,1.01,1.37,1.52.14.75.39,1.47.76,2.13-.06,2.15.88,3.29,1.37,4.88.05.46,0,.93-.15,1.37.64,2.9.26,6.04.46,8.84.04.55-.46.56-.46,1.07-.12.53.23.58.15,1.07-.01,1.11-.27,2.2-.76,3.2.09,1.66-.66,2.49-.76,3.96-.18.63-.75.87-.61,1.83-.14.42-.66.5-.92.92-.09.14.06.45,0,.61-.04.09-.24.17-.3.3-.14.29-.2.58-.46.76-.04.45.34.47.3.92,0,.46-.32.59-.46.91-.24.22-.12.8-.61.76-.06.86-.75,1.08-.76,1.98-.92.55-1,1.95-1.83,2.59-.5.97-1.35,1.6-1.83,2.59-.6-.04-.57.55-1.22.46-.13.73-.75.97-.76,1.83-.2.06-.33.25-.3.46-1.59,1.71-3.44,3.15-5.49,4.27-.8.63-1.1,1.74-2.59,1.68-.91.87-2.08,1.48-3.05,2.29-.32-.06-.62-.16-.91-.3-1.01.3-1.9.88-2.59,1.68-1.36.16-2.89.16-3.66.92h-.92c-.71.25-1.1.83-1.83,1.07-.32-.06-.62-.16-.91-.3-1.57,0-2.02,1.78-3.66,1.22-1.91.8-4.72.15-6.86.46-1.35-.27-2.25-.75-3.81-.46-.39-.23-.67-.62-.76-1.07-.78.38-1.71.32-2.44-.15-.55-.04-.56.46-1.07.46-.79-.38-1.94-.4-2.29-1.22-1.55.61-1.85-1.15-3.5-.92-.1-.36-.51-.41-.61-.76h-.91c-.23-.74-1.43-.49-1.83-1.07-.57.11-.73-.19-1.22-.15-.49-.37-.9-.84-1.22-1.37-.54-.02-.68-.44-1.22-.46-.06-.55-.49-.73-1.07-.76-.19-.32-.42-.6-.61-.92-.57-.09-.96-.36-1.52-.46-.6-.77-1.58-1.16-2.13-1.98-.76.15-.75-.47-1.37-.46-.27-.34-.53-.7-.76-1.07-1.19-.29-1.64-1.31-2.59-1.83-.42-1.15-1.23-2.12-2.29-2.74-.45-1.43-1.58-2.18-2.44-3.2.07-.48-.28-.54-.15-1.07-.26-.3-1.07-.05-1.22-.46-.5-1.87-1.44-3.59-2.74-5.03-.02-.83-.17-1.66-.46-2.44-.75-.57-.96-1.68-1.37-2.59-.02-.59.12-1.34-.31-1.52.15-.44.2-.91.15-1.37-.07-.54-.55-.67-.76-1.07.03-1.25-.68-1.76-.46-3.2-.56-1.72-.87-3.52-.91-5.33-.12-.53.23-.59.15-1.07-.07-.94-.53-1.5-.46-2.59.09-.72.58-1.04.91-1.52-.44-1.13-.44-2.38,0-3.51-.28-.76-.81-2.11-.15-2.9.07-.71.01-1.44-.15-2.13.49-.86.85-1.78,1.07-2.74.08-.84-.87-.65-.61-1.67.03-.52.45-.66.92-.76.29-.95-.03-1.4-.15-2.29-.02-.32.22-.59.53-.61.03,0,.05,0,.08,0v-.92c.33-.45.83.06,1.22-.46-.05-.66-.4-1.02-.46-1.68.68-.53.74-1.7,1.37-2.29.45-.22.52.12.91-.15,1.06-.77,1.17-2.48,1.68-3.81.33-.24.69-.44,1.07-.61.01-1.72,1.57-1.89,1.98-3.2.32-.33.49.13.76-.15v-.91c.75-.61,1.24-1.48,1.37-2.44.92-.04.68-1.26,1.68-1.22.26-.3.35-.77.61-1.07.48.02.51-.41,1.07-.31.78-.54,1.17-1.47,2.13-1.83.21-.2.09-.72.31-.91.95-.32,1.26-1.28,2.59-1.22,1.02-.75,1.9-1.68,2.59-2.74.47.11.45-.26.91-.15.93-.38,1.81-.89,2.59-1.52h.76c.55-.18.96-.65,1.07-1.22.37-.06.33.28.76.15,3.19-1.63,6.57-2.86,10.06-3.66h.92c.68-.26,1.4-.41,2.13-.46ZM40.99,1.39c.31.27,1.23.22,1.07-.46-.46.05-.93.09-1.07.46ZM60.65,2.45c-.02-.69-.81-.61-1.53-.61-.28-.04-.85-.55-1.07-.15.73.59,1.66.87,2.59.76ZM56.84,4.74c.01-.52-.56-.45-1.06-.46-.1.61.58.44,1.06.46ZM62.47,6.11c.26-.13.48-.35.61-.61-.59-.08-1.39-.74-1.98-.3.54.22.49,1.03,1.37.91ZM66.89,7.02c-.75-.58-2.33-1.86-3.35-.76.27.7,1.79.14,1.83,1.07-.55.44-1.18-.09-1.52.61.51.53,1.26.76,1.98.61.42.52,1.88,1.38,2.59.61-.42-.34-1.01-.51-1.37-.91-.58-.13-1.42,0-1.22-.91,1.05-.19,1.96.42,2.74,0,.13.22.23.48.61.46-.06-.94-1.59-.92-2.28-.76h0ZM58.97,6.72c.35.04.57-.04.61-.31-.22-.04-.26-.25-.46-.3-.05.2-.22.28-.15.6h0ZM61.1,7.18c.23.24,1.05.27.92-.3-.72.06-1.05-.27-1.83-.15,0,.45.54.37.91.45h0ZM62.63,7.49c.22.15.5.21.76.15.15-.56-.75-.61-.76-.16h0ZM72.23,9.31c-.14-.62-.74-1.02-1.37-.91,0,.75.93.59,1.37.91h0ZM71.46,10.99c-.17.02-.24-.22-.3,0,.02.08.1.13.19.11.06-.01.1-.06.11-.12h0ZM69.33,16.17c-.18.02-.43-.03-.46.15.18-.02.43.02.46-.16h0ZM58.51,20.28c-.69.04-1.5,1.06-1.98,1.22-.45.77-.81,1.59-1.07,2.44-.11,1.14.22,2.29.92,3.2.76-.03,1.51.18,2.13.61.33-.48.98-.65.76-1.68.64-.58.72-1.72,1.07-2.59v-2.13c-.53-.55-1.03-1.11-1.83-1.07ZM48.15,28.2c.32-.79.57-1.61.76-2.44-.38-1.11-.12-2.08-.76-3.05-.12-.03-.3,0-.3-.15-.97-.05-1.24.59-1.83.91-.6,1.18-1.47,2.09-1.37,3.96.35.62,1.54.39,1.83,1.07-.74.2-1.41.56-1.98,1.07.21.67.02.78-.15,1.37.22,1.31-.66,2.08-.46,2.89.87.19,1.78-.17,2.74.15.57-.78.98-1.66,1.22-2.59-.07-.71-.02-1.43.15-2.13-.23-.33-.65-.47-.91-.76.56.1.59-.33,1.07-.31ZM64.15,35.97c.42-.79.88-1.55,1.37-2.28v-1.22c.32-.24.57-.55.92-.76.21-1.14.74-2.19,1.52-3.05.19-1.69.37-3.54-1.37-3.66-.71.08-1.4.35-1.98.76-.78,1.64-1.29,3.38-1.52,5.18.28.23.38.64.76.76.5.06.98.13,1.07.61-.28.67-1.38.12-1.98.15-.62.59-.63,1.8-.91,2.74-.08.48.03.97.31,1.37-.69.46-.03,1.19.3,1.52.78-.47,1.33-1.24,1.52-2.13h0ZM55.16,28.35c-.55.86-.82,1.87-.76,2.9-.44.53-.76,1.16-.92,1.83.03.43.28.63.3,1.07-.49.33-.91.72-1.37,1.07-.74,1.46-.95,3.13-.61,4.72.99.27,2.03.32,3.05.15.62-1.33,1.13-2.7,1.52-4.11-.23-.73-1.42-.51-1.83-1.07-.09-.55.91,0,.76-.61-.43-.03-1.04.13-1.06-.3.38-.96,1.28-.05,2.13-.15.45-.41,1.02-.7,1.22-1.37-.05-1.21.21-2.42.76-3.5-.95-.6-2.09-.82-3.2-.61h0ZM37.64,29.11c.48.07.62-.19.76-.46-.44-.03-.83-.01-.76.46h0ZM44.34,34.6c.07.49,1.01.1,1.22.46-.41.71-1.14.29-1.83.15-1.09.33-.82,2.02-1.07,3.2.28.95.49,1.92.61,2.9,1.91.08,2.47-1.18,3.66-1.83-.06-.29.06-.59.3-.76.15-.61-.46-.46-.3-1.07.27-.57.37-1.2.3-1.83-.16-.65-.86-.76-.91-1.52-.59.16-1.87-.36-1.97.3h0ZM68.57,46.18c.61-1.53,2.14-2.13,2.29-4.12.57.16.43-.38.91-.3.21-.56.65-1.01,1.22-1.22.35-.87,1.06-1.38,1.22-2.44-.16-.59-.21-1.21-.15-1.83-.73-1.46-2.27-.56-3.2.15-.52,1.56-2.21,2.6-1.83,4.57-.33.18-.85.16-1.07.46-.28,1.4-1.22,2.14-1.68,3.35-.47.4-.98.76-1.52,1.07-.45,1.16-.6,2.42-.46,3.66.92.21.6-.82.91-1.22.47-.11.93-.27,1.37-.46.31-.4.21-1.21.61-1.52.59.08.74-.28,1.37-.16ZM29.56,35.67c-.15.55.85.33.76,0-.29-.29-.38-.02-.76,0ZM25.6,36.89c.05-.21.22-.29.15-.61h-.46c-.04.35.04.57.31.61ZM24.23,38.57c.32.02.59-.22.61-.53,0-.03,0-.05,0-.08-.2,0-.21-.19-.46-.15-.15.22-.21.5-.15.76ZM21.49,38.72c.22.06.26.18.46,0-.02-.19-.05-.36-.31-.31,0,.15-.12.18-.15.31ZM27.89,40.09c.14-.12.68-.93,0-.91.17.39-.46.73,0,.91h0ZM59.58,40.55c.15.51.84.48.76,1.22-.12.68-1.2.74-.61,1.68.83-.08.83-1,1.07-1.68,1.14.17,1.17-.76,1.53-1.37-.36-1.17-2.73-1.52-2.75.15h0ZM20.57,41.92c.46.24.4-.79.15-.76.06.37-.28.33-.15.76ZM20.27,43.44c.03-.44.6-1.11.31-1.37-.34.19-1.06,1.03-.31,1.37ZM46.32,49.69v.3c.27.69,1.08.85,1.07,1.83.19.21.75.07.76.46-.02.38-.03.74.3.76.45-.26.58-1.47,1.37-.91-.18.45-.5.82-.91,1.07-.13.37-.14.88-.61.92-.55.09-.46-.45-.46-.92-.62-.45-.65-1.49-1.68-1.52,0,.76.04,1.53.15,2.28.69.18.34-.67,1.07-.46.06.37-.28.33-.15.76.53-.02.96.86.76,1.07-.6-.21-1.2-.42-1.83-.61-.12-.5-.17-1.01-.15-1.52-.19-.32-.7-.78-.3-1.22-.56-.78-1.07-1.59-1.52-2.43-.49.09-.71-.1-1.07-.15-.44.16-.9.26-1.37.3-.06.2-.25.33-.46.3-.24.37-.55.68-.91.91-.07.37-.29.7-.61.91.12.38-.08.79-.46.92.02.57.92.8.46,1.37-.91.09-.8-.83-1.83-.61-.56.15-.78.64-1.07,1.07-.85.27-1.08,1.16-1.83,1.52-.46-.28.19-1.09-.15-1.22-.08.53-1,.22-1.52.3-.55-.29-1.01-.71-1.37-1.22.25-.16.33-.49.17-.74-.04-.07-.1-.13-.17-.17-.99-.16-.62.9-.76,1.22-.38-.02-.47.24-.76.31-.1-.41-.64-.38-.61-.92.14-.44.2-.91.15-1.37-.01-.34-.33-.42-.3-.76s.39-.16.3-.61c-.66-.15-.42-.96-.3-1.52-.4-.11-.77-.32-1.07-.61-.08-.59.27-.74.15-1.37-.73-.19-1.38-.45-1.37-1.37.63-.17.59.32,1.07.31.02-.84-.77-.86-1.22-1.22-.49-.53-.83-1.2-1.67-1.37-.89.38-2.41.13-2.29,1.52.46.34.53.18,1.22.15.32.5.48,1.09.45,1.69-.48.42-.8.19-1.37,0,.29.65.54,1.31.76,1.98.49.33.91.72,1.37,1.07.75,1.23,1.95,2.01,2.74,3.2.84,1.24,1.56,2.57,2.13,3.96.05,1.05.42,2.06,1.06,2.89v1.07c1.23,1.31,2.29,2.79,3.5,4.12-.11.47.42.29.3.76,1.33,1.26,2.98,2.2,4.42,3.35h3.05c.44-.34.97-.55,1.52-.61.47-.11.29.42.76.3.35-.46,1.12-.51,1.52-.91.25-.36.05-1.17.61-1.22-.11.6-.16,1.22-.15,1.83.43.13.4-.21.76-.15.16.63.48,1.2.91,1.68.86.78,2.12.66,3.35,1.07.32-.54,1.51-.22,2.29-.31.96-.72,1.9-1.45,2.89-2.13.23-.62.66-1.16,1.22-1.52.39-1.14.85-2.26,1.37-3.35v-.92c.23-.18.24-.58.46-.76.13-.43-.22-.39-.15-.76.66-1.06.72-2.73,1.37-3.81-.23-.42-.34-.9-.3-1.37.2-.21.72-.09.92-.3,0-.69.15-1.37.46-1.98.07-.48-.47-.34-.3-.91.31-.4,1.01-.41.91-1.22-.95-.65-1.73-2.48-3.35-1.52-.2-.32.08-.45-.15-.92-.39-.02-.3-.51-.3-.91-.92-.5-1.62-1.31-1.98-2.29-.61.3-1.32-.51-2.13,0-.25-.36-.41-.78-.46-1.22-.71-.54-1.48-1-2.29-1.37h-1.83c-.08.53.23,1.45-.3,1.53-.45.05-.86-.27-.91-.73,0-.01,0-.02,0-.04-.18-.44.91-.69.15-.76h-1.07c-.21-.13-.49-.64-.76-.76-.47-.22-1.35-.03-1.83-.3-.08-.05-.17-.44-.3-.46-.76.18-1.56.13-2.28-.15-.73,1.2-1.93,2.56-1.37,4.57,1.39.94,1.71,2.95,4.11,2.89ZM85.18,45.12c.04-.35-.04-.57-.31-.61.04.27-.15.76.31.61ZM17.68,85.95c-.28.7.82.79,1.07.46-.29-.35-.54-.74-1.07-.46h0ZM50.13,98.14c.53.19,1.14.54,1.22-.31-.41.1-.95.06-1.22.3h0Z"/>
</svg>
