<?xml version="1.0" encoding="UTF-8"?>
<svg id="Layer_1" xmlns="http://www.w3.org/2000/svg" version="1.1" viewBox="0 0 102.53 105.77">
  <!-- Generator: Adobe Illustrator 30.5.1, SVG Export Plug-In . SVG Version: 2.1.4 Build 3)  -->
  <defs>
    <style>
      :root {
        color-scheme: light dark;
      }

      .st0 {
        fill: #42635e;
      }

      @media (prefers-color-scheme: dark) {
        .st0 {
          fill: #fff;
        }
      }
    </style>
  </defs>
  <path class="st0" d="M77.99,16.3c-.58-1.94-1.18-4.09-1.01-8.31.04-1.15.62-2.12,1-2.97C70.7.22,61.47,0,52.81,0c-9.82,0-20.21.15-28.58,5.24-.51,2.04.65,3.42.22,5.45-.07.22-.07.36-.15.58l-5.53,13.67c-2.33,3.93-4.87,7.63-7.27,11.42-4.58,7.27-8.58,15.42-8.07,23.92.65,10.62,8.07,19.41,15.2,27.2,4.65,5.09,9.45,10.11,15.34,13.74,5.89,3.56,13.02,5.6,19.78,4,4.14-1.02,7.78-3.27,11.42-5.45,9.38-5.82,19.05-11.85,25.67-20.72,3.78-5.09,6.4-10.91,7.78-17.09.36-2.33.65-4.58.44-6.84-.22-2.54-1.09-5.02-2.11-7.42-3.2-7.34-7.78-13.96-12.51-20.36-.87-1.16-1.83-2.27-2.54-3.49-2.52-4.27-2.96-5.05-3.91-7.55ZM65.54,47.41c.44.15.73.51,1.09.8l-.29.07c.44.36.44,1.09.07,1.53-.29.36-.73.51-1.16.51.15.36,0,.87-.36,1.02-.15.65-.73,1.02-1.31,1.31-.07.07-.22.07-.29.07-.22,0-.36-.22-.36-.44s.15-.44.29-.51c.07-.07.15-.07.22-.15.29-.22,0-.73.22-1.02.07-.07.22-.15.22-.29.07-.15-.07-.29-.22-.36s-.29-.07-.44-.15c-.36-.22-.22-.73-.15-1.16.07-.29.15-.58.36-.8.15-.22.51-.36.73-.29.44-.29.95-.29,1.38-.15ZM58.63,29.16c.15-.36.51-.51.73-.8.15-.29.15-.65.29-.87.22-.44.8-.58.95-1.02.07-.15.07-.29.15-.36.15-.15.36-.07.58-.07.44,0,.87-.44,1.31-.51.51-.07,1.02.29,1.38.65.22.22.44.44.65.58.07.07.15.15.15.29s-.15.22-.29.29c-.36.22-.51.65-.44,1.02l.07-.51c.22.15.15.58.07.8-.29.73-.58,1.45-.87,2.18-.07.15-.07.29-.15.36v.44c0,.29-.07.58-.15.8-.07.15-.07.29-.15.51-.07.44-.29.87-.73.95-.29.07-.51-.15-.8-.22-.22-.07-.44,0-.73,0-.51-.07-1.02-.36-1.38-.73-.15-.07-.29-.22-.36-.36s-.15-.29-.15-.51c-.07-.44-.22-.95-.15-1.45,0-.15.07-.29.07-.51.07-.22-.15-.58-.07-.95h0ZM54.56,46.32c.15-.22.44-.36.51-.65.07-.22,0-.36-.07-.58-.29-1.6,1.67-3.05,1.24-4.65-.07-.29-.22-.51-.22-.8,0-.51.51-.87.65-1.31.07-.44-.22-.87-.07-1.38.07-.29.29-.51.51-.8.15-.29.22-.73-.07-.87,1.09-.44,2.4-.44,3.49,0,.36.15.73.44.73.8l.07-.44c.65.51.8,1.6.22,2.25-.15.15-.29.29-.36.44-.22.51.58,1.09.36,1.67-.07.15-.22.22-.29.36s-.15.44-.22.58c-.29.51-1.02.44-1.6.36s-1.38.15-1.38.73c-.07.36.29.65.65.73s.73.22.87.51.07.65-.07.95c-.15.36-.22.65-.36,1.02-.22.58-.44,1.16-.51,1.75-.15.65-.15,1.38-.65,1.82-.51.44-1.31.29-1.96,0-.51-.22-1.02-.51-1.38-.95-.29-.44-.44-1.09-.07-1.53ZM44.01,45.52c.15-.73.87-1.38.58-2.04.51-.07,1.09.22,1.6.15s1.09-.58.87-1.09c-.15-.36-.65-.36-.87-.65-.29-.29-.29-.87-.07-1.31.15-.44.44-.8.51-1.24.15-.8-.44-1.82.15-2.47.29-.29.65-.36,1.02-.58.36-.15.65-.58.51-.95-.29-.51-1.16-.15-1.6-.58-.29-.29-.22-.8-.07-1.16.29-.87.51-1.75.8-2.62.29-.87.58-1.89,1.38-2.4.73-.58,2.04-.44,2.33.51v-.29c.44.65.44,1.45.15,2.18-.22.36-.51.8-.44,1.16.07.44.51.65.65,1.02.22.58-.22,1.16-.65,1.6s-1.02.87-1.02,1.45c.22.07.51.15.73.36s.22.51.07.73c-.15.15-.29.15-.44.29-.73.51.15,1.89-.44,2.54-.29.36-.87.44-1.02.87-.15.36.07.65.29.95.51.73,1.02,1.45,1.53,2.18-.65-.15-1.31.51-1.24,1.16.07.51.51.95.58,1.38.15.73-.51,1.38-1.16,1.82-.65.36-1.38.73-1.67,1.45-.07.07-.07.22-.22.29h-.22c-.8-.22-1.67-.58-1.89-1.38-.15-.44-.07-.87-.15-1.31-.29-.65-.73-1.38-.58-2.04ZM67.28,64.28c-.07.36-.58.51-.87.29-.58.58.65,1.53.36,2.33-.22.51-.95.51-1.45.36-.87-.22-1.82-.44-2.4-1.16-.15-.22-.29-.44-.51-.51-.44-.15-.73.51-1.09.8-.65.58-1.82,0-1.82-.87-.51.15-.95.58-.95,1.09.22.73,1.24.73,1.89.44s1.38-.87,2.11-.65c.44.07.8.44,1.16.65.58.29,1.24.44,1.67.95.44.51.36,1.53-.29,1.53-.29,0-.58-.22-.87-.22-.29-.07-.73.29-.51.51.65.15,1.31.15,1.96.07-.07.15-.07.22-.15.36-.29.95-.65,1.89-.58,2.84.07.65.22,1.31,0,1.89-.22.44-.65.73-.95,1.16s-.22,1.16.29,1.24c-.15.15-.36.22-.51.36.15.73-.44,1.45-1.02,1.89-.58.51-1.24,1.02-1.31,1.82-.22,0-.44.07-.65.07-.58,1.09-1.75,1.89-2.98,2.04v.8c-1.16-.07-2.33.07-3.42.22-.29.07-.51.07-.8,0-.15-.07-.29-.15-.36-.36l-.07.07c-.87-.95-1.75-1.89-2.62-2.91.15-.58-.22-1.09-.58-1.53-.07-.15-.22-.29-.36-.36-.44-.29-1.02.29-1.02.87s.44,1.02.8,1.38c-.44.73-1.53-.07-2.25.29-.29.15-.51.51-.8.58-.58.22-1.09-.29-1.67-.51-.8-.29-1.75.07-2.62,0-1.38-.07-2.47-1.16-3.49-2.18-.8-.8-1.6-1.6-2.4-2.47-1.02-1.09-2.11-2.18-2.91-3.42-.51-.8-.87-1.75-1.24-2.62-.15-.29-.22-.51-.36-.8-.07-.22-.22-.51-.29-.73-.15-.73-.07-1.53-.51-2.11-.15-.22-.36-.36-.51-.51-.95-.8-1.6-1.96-1.82-3.2-.07-.29-.07-.58-.22-.87-.15-.29-.36-.51-.58-.73-1.24-1.16-2.47-2.25-3.71-3.42-.58-.51-1.16-1.16-1.09-1.89.29.07.73-.15.95-.29.15.15.29.29.51.29.44-.07.58-.65.36-1.09-.22-.36-.65-.58-1.02-.87-.36-.22-.73-.58-.8-1.02s.29-.87.65-1.02c.36-.22.87-.22,1.31-.15.44,0,.87.07,1.31.22.95.29,1.67,1.16,2.33,1.96.22.22.44.51.36.8-.07.44-.58.73-.51,1.09.07.29.29.44.51.58.8.65,1.02,1.89,1.75,2.54.07.07.22.15.29.29s.15.36.15.51c.07.65-.07,1.31-.36,1.96-.15.29-.36.58-.36.95-.07.58.29,1.38.87,1.16.51-.22.87-.8.87-1.38.36-.07.87-.07,1.02.22.22.44-.44,1.02-.29,1.53.15.58,1.02.29,1.6.51.44.15.73.58,1.09.95.29.36.8.65,1.24.44.51-1.09,1.24-2.11,2.04-2.98.22-.22.44-.44.73-.51.44-.07.8.36,1.09.73s.87.58,1.16.22c-.51-1.45-.95-3.34.15-4.51.65-.65,1.6-.8,2.54-.95.36-.07.8-.07,1.16,0,.58.15.95.65,1.31,1.09.73.73,1.67,1.31,2.62,1.67.15.29-.44.8-.8.73-.36,0-.87.07-.87.44.29.65.8,1.24,1.45,1.53.15-.29.22-.58.22-.87.36-.15.73-.36,1.02-.65v-1.45c-.36-.22-.8-.36-1.02-.73s-.44-.8-.22-1.24c-.65,0-.95-1.31-1.53-1.02-.22.15-.29.51-.51.58-.15.07-.36-.07-.51-.15-.8-.58-1.45-1.31-1.89-2.18h-1.16c-.58-.73-.73-1.67-.51-2.54.15-.87.65-1.67,1.09-2.47.44-.65.95-1.24,1.67-1.45,1.38-.29,2.47,1.24,3.85,1.6.44.15.87.15,1.24.29,1.02.36,1.6,1.31,2.18,2.18.15-.07.36-.15.51-.29-.15-.51,0-1.09.29-1.6.95.07,1.96.22,2.84.58.15.07.29.15.44.29.15.15.15.36.29.51.29.44.87.36,1.38.44.51.07.95.73.51,1.02.73-.07,1.6,0,2.04.65.22.36.22.8.36,1.16.29.58.95.8,1.53,1.09.58.29,1.09.95.8,1.53,1.53-.36,3.27.65,3.78,2.25-.44.07-.87.22-1.09.58s0,1.31.36,1.38h0ZM68.23,43.85c-.07.15-.15.36-.15.51-.29.8-.73,1.53-1.31,2.04-.44-.36-.44-1.02-.44-1.6,0-.65-.07-1.24-.07-1.89,0-.73-.07-1.53.29-2.25.22-.36.51-.73.87-.87s.87,0,1.09.36c.22-.29.36-.51.58-.8-.36-.22-.8-.29-1.16-.51s-.73-.58-.73-1.02c0-.58.58-1.02.36-1.53-.07-.15-.22-.36-.22-.51,0-.29.29-.44.36-.73.07-.22,0-.51,0-.8,0-.58.36-1.16.73-1.6.36-.51.8-1.02,1.31-1.38.73-.44,1.6-.58,2.4-.36.22.51.22,1.09,0,1.6.29.15.44.44.51.73l-.07-.15c.36.51.15,1.16-.07,1.67s-.58,1.09-.51,1.67c0,.22.07.36,0,.58s-.29.29-.51.44c-.44.29-.65.8-.87,1.31-.58,1.31-1.16,2.62-1.67,3.93-.07.22-.22.44-.36.65-.07.15-.22.29-.36.51h0ZM79.35,47.77c-.58-.07-.87.58-1.02,1.16-.15.58-.36,1.24-.87,1.31-.22,0-.36,0-.58.07-.36.15-.22.73-.07,1.09-.29,0-.58.07-.87.07.22.29.07.73-.07,1.09-.73,1.38-1.89,2.62-3.2,3.42-.36.22-.8.51-.87.95,0,.22,0,.44-.07.58-.07.15-.22.29-.36.36-.8.58-1.6,1.09-2.47,1.53-.29-.15-.22-.58-.07-.87.15-.29.36-.51.44-.8.07-.36-.15-.8-.15-1.16,0-.22.15-.44.29-.58.36-.58.73-1.09,1.09-1.67.29-.51.65-1.09.44-1.6.58,0,.95-.65,1.09-1.24s.36-1.24.87-1.45c.15-.07.36-.07.51-.29.29-.36-.29-1.09.07-1.38.15-.15.36-.07.51-.22.22-.22,0-.58-.07-.87-.15-.51.29-1.02.8-1.02.44-1.6,1.89-2.76,3.49-2.76l-.36-.07c.87-.51,1.96.44,2.18,1.45s-.22,1.96-.65,2.91Z"/>
  <path class="st0" d="M19.22,20c-1.31-.8-2.76-2.4-1.89-3.71.65-1.09,2.25-.95,3.42-.58.73.22,1.73.68,2.38.97.29-.87.23-1.92.52-2.79.22-.87.71-1.87.92-2.74-.73-.22-1.72-.32-2.52-.46-1.96-.44-4.07-.8-5.89.07-1.38.65-2.4,1.89-2.91,3.34-1.02,2.98.36,6.47,2.62,8.73.87.87,2.16,1.87,3.18,2.53.73-1.31,1.39-2.98,2.12-4.36-.65-.44-1.44-.71-1.95-1Z"/>
  <path class="st0" d="M79.79,15.27c1.09-.36,2.62-.44,3.2.58.8,1.24-.58,2.69-1.82,3.49-.51.36-1.09.65-1.6.95.73,1.24,1.45,2.4,2.25,3.56.87-.58,1.75-1.24,2.54-1.96,2.11-2.11,3.34-5.31,2.4-8.07-.44-1.31-1.45-2.47-2.69-3.13-1.67-.8-3.71-.44-5.53-.07-.58.15-1.24.29-1.82.51.07,1.67.44,3.42.95,5.02.65-.36,1.38-.65,2.11-.87h0Z"/>
</svg>