<?xml version="1.0" encoding="utf-8"?>
<svg xmlns="http://www.w3.org/2000/svg" viewBox="0 0 308 105.773"><title>2018LaManoLogo</title><path d="M126.277,38.225l-.042.629v.668l-.312.791-.105.984.105,1.415.417.525.313.666,1.461.628,1.19.206,2.985.277.834-.172.628.066h1.4l.836-.735.479-.894.21-.63.249-.417.314-.981.94-.584.834.52-.145.628-.1.584.208.733V43.9l-.063.585v2.3l-.355.417-1.941.148-2.3.064-.67-.064-1.356.106h-5.74l-.941-.147-.834-.209-.94.042-1.106.272h-1.5l-1.212.106h-1.146l-1.087-.211-.375-.483.375-.665.834-.583.94-.628.669-.881.105-1,.061-1.608.043-.838.417-.624-.1-1.045-.356-1.1-.313-.985v-1l.313-1.254.105-1.085.147-.834-.043-.524-.209-.2-.166-1.007.105-1.041.521-1.253-.041-1.61-.063-1.1-.1-1.048V23.55l.062-.628v-.773l-.314-.521-.376-.63-.876-.581-.689-.461-.417-.79.1-.734.94-.147,1.044.11,1.148.314h1.043l1.462.036,1.669-.521.941.107.792.1,1.044-.1.563.378-.208.52-.772.521-.731.521-.585.727-.314,1.09-.416.9.063,1.087v1.418l-.105,1.188-.063,1.108-.25.731-.376.832-.146.21.668.42.377.564.1.478-.271.457-.147.84-.1,1.625.1,2.026.418.791Z" fill="#FFFFFF"/><path d="M154.544,34.72l-.563.06h-.793l-.941.25-.772.731-.313.937-.271.942-.418.731-.251.73-.312,1.109-.481.83-.459,1.506-.208,1.047.312.833.668.686.689.464.46.583.1.939-.208.42-.94.1-1.607-.163-1.107.123-1.712-.123-1.775-.254-1.252-.687.251-.734.94-.417,1.209-.771.878-.627.48-.895.981-1.772.48-.734.564-.938.835-.671.167-1,.208-.937.25-.94.42-.938.521-.941.689-1.042.208-.774.25-.838.272-1,.419-.524.458-.938.272-1.047.145-.522.314-.727.313-.733.374-.836.357-.623.375-1.045.21-.774.353-.52.315-.941.062-.688.042-.877.1-1.632.69-.518h.772l.417.584.064,1.148.208.832.354.94.481.942.459,1.191.208,1.252.209.831.481.837.354,1.528.312.561.064.9.251.731.209.875.271.63.209.314.1.83v1.106l.626,1.151.459,1.087.481,1.105.312.774.251.688.271.667.21.524.312.835.147.727.062.9.564.42.584.941.25.939.836.936,1.043.522.585.563-.1.627-.689.544h-.939l-2.025-.059-1.733-.064-1.567.123-.624.04-1.608-.04-.21-.479.774-.481,1.044-.353.624-.8.1-.626-.041-.836-.167-.727-.251-.523L161.5,41.71l.042-.67-.565-.79-.313-.522-.271-.627-.147-.876-.271-.372-.355-.67-.062-.837-.355-.728-.417-.481-.315-.25-.688-.208-.939-.106-1.254.04Zm2.714-8.183-.147-.483-.624-.31-.585.062-.252.31-.167.625-.354.627-.585.982-.209.733-.417,1.045v1l.063.728.311.874.837.213.668.063,1-.063,1.043-.354.146-.686-.042-.629-.313-1.147-.209-.944v-.878l-.271-.417-.313-.584.209-.518Z" fill="#FFFFFF"/><path d="M198.674,38.684l1.356-.417.521-.627.064-.98.146-.732.313-.835.523-1.148.48-1.251.208-1.735.251-1.463.584-.937.563-1.148.837-1.605.687-1.568.564-1.316.417-.94.419-1.668.584-1.148.564-.625.938.1,1,.067,1.084.036,1.316.1.771.17,1.214.043.462.584-.15.935-.521.36-1.106,1.105-.522,1.357v1.252l.165,1.089-.1,1.518-.209.566v1.315l-.272.353v.942l-.1.9-.106.984.063,1.415.357.944.166.731-.272.978-.417.938-.042.9.042.983.1,1.629.106.873.27.8.1.67-.374.418.1.687.481.734.876.728.628.417v.417l-.731.31-.94.147-.772-.04-1.045.355-1.251.17-1.15.059-.9-.059-.209-.274-.353.274h-.629l-.626-.318v-.727l.251-1,.835-.31.418-.773.522-1.148-.145-1.045-.273-.731v-.732l.106-1.1.27-.671L207.4,37.6l.041-1.042-.145-.8.042-2.192v-1.92l.269-1.1.148-.777-.148-.625.148-.9.105-1.252.269-.42-.062-.981-.667-.584-.689.209-.523,1.151-.208.732-.251.374-.208.938-.209.833-.417.628-.48.732-.251,1.147-.273.731-.208.728-.625,1.295-.25.523-.272.837-.564,1.148-.626,1.252-.8,1.255-.312.688-.458,1.354-.522,1.4-.377,1.043-.565,1.008-.415.414-.272.836-.251.769-.48.107-.355-.876-.523-1.106-.416-1.152-.627-1.19-.208-.624.355-.417-.1-.835-.626-.48-.834-.671-.21-.624v-.688l-.669-.624-.9-1.091-.628-1.041-.208-1.361-.522-.895-.313-.875-.522-.793-.354-.774-.628-.942-.166-.62-.564-.588-.312-.771-.064-.691-.354-.774-.584-.583L186,25.846l-.48.107-.1.935.1.834.168,1.254.04.792-.145.94-.063,1.045.1,1.712v1.214l.064,2.019.1,1.779.25,1.251.209.793-.1,1.043-.314.73-.1.838.314.832.585.567.417.581.835.878.522.733-.1.477-.836.318-1-.17-.521.229-.835-.229h-2.861l-1,.229-.626-.165-.147-.588.563-.454,1.149-.527.585-1,.417-.939.251-.98-.314-2.153.272-1.291.042-1.212.375-.978.209-.731-.313-.63-.105-.9.209-.938-.1-1.085-.105-.8.148-.518-.148-.357.105-.9.356-.417-.043-.56-.522-.691-.209-.942.251-.874.314-1.047.1-.939-.1-.793-.418-.46-.355-.728-.105-.731v-.691l-.522-.667-.73-.419L180.928,20l-.417-.105-.313-.564-.105-.791.313-.357.479-.066,1.087.38,1.357.144,1.044-.1.627.1,1.357.17,1-.21h.627l1.5.04.273.481-.273.878-.311,1.147.1.794.1.878.689.417.46.521.521.937.627,1.049.481.83.312.9.042.831.479.567.628.588.522.413.207.834.355.878.314.734.377,1.039.417,1.046.207,1.25.418,1.36.626,1Z" fill="#FFFFFF"/><path d="M228.505,34.72l-.564.06h-.8l-.937.25-.776.731-.312.937-.271.942-.417.731-.25.73-.314,1.109-.478.83-.464,1.506-.206,1.047.312.833.667.686.69.464.46.583.105.939-.21.42-.936.1-1.609-.163-1.108.123-1.712-.123L217.6,47.2l-1.251-.687.25-.734.942-.417,1.208-.771.879-.627.478-.895.982-1.772.483-.734.562-.938.832-.671.17-1,.21-.937.248-.94.419-.938.522-.941.687-1.042.208-.774.253-.838.268-1,.419-.524.462-.938.269-1.047.146-.522.311-.727.316-.733.376-.836.356-.623.374-1.045.21-.774.355-.52.312-.941.063-.688.045-.877.1-1.632.69-.518h.774l.417.584.059,1.148.214.832.351.94.481.942.461,1.191.206,1.252.212.831.477.837.358,1.528.314.561.061.9.247.731.21.875.274.63.206.314.1.83v1.106l.626,1.151.462,1.087.48,1.105.312.774.25.688.27.667.211.524.311.835.148.727.062.9.562.42.587.941.253.939.831.936,1.046.522.583.563-.1.627-.689.544h-.941l-2.022-.059-1.732-.064-1.569.123-.626.04-1.609-.04-.208-.479.772-.481,1.045-.353.626-.8.105-.626-.043-.836-.167-.727-.249-.523-.314-1.046.042-.67-.562-.79-.314-.522-.273-.627-.144-.876-.271-.372-.357-.67-.061-.837-.356-.728-.417-.481-.312-.25-.69-.208-.942-.106-1.25.04Zm2.714-8.183-.146-.483-.628-.31-.585.062-.249.31-.169.625-.355.627-.582.982-.213.733-.415,1.045v1l.064.728.312.874.834.213.67.063,1-.063,1.046-.354.145-.686-.043-.629-.314-1.147-.207-.944v-.878l-.272-.417-.315-.584.212-.518Z" fill="#FFFFFF"/><path d="M270.218,47.825l-.84-.143-.77-.228-.794-.568-.042-.727-.314-.9-.415-.311-.419-.627L266,43.8l-.69-.563-.356-.421-.418-.789-.477-.776-.629-.688L262.908,40l-.731-.52-.628-.9-.667-.564-.583-.628-.355-.627.147-.938-.252-.374-.793-.46-.419-.311-.522-.42-.457-.483-.378-.622-.564-.774-.835-.838-1.144-1-1.151-1.508-.523-1-.48-.935.064-.774-.732-.42-1,.316-.208.935.417,1.465v3.13l-.461,2.3v1.462l-.064,1.778.108,1.041-.108.458.213,1.044.062,1.041.1,1.632.355,1.042.9.733.564.415.375.667.983.694.831.417.586.351.1.483-.584.481-1.149-.334-1.084-.147-1.106.1-.837.2-.941-.2-.624-.168-.876.168-.943-.1-.894-.167-.942-.627.315-.628.627-.352,1-.732.315-.9.417-.98.356-.629.061-1.565-.061-3.967.166-.834.211-.689-.274-.94-.042-1.709-.061-3.82.208-.838.105-.732-.105-.831-.042-1.09V23.653l-.209-1.4-.481-1-.835-.731-.771-.457-.625-.585v-.769l.625-.168.771.168,1.525.036,1.357.17,1.19.208,1.564-.1,1.153.147.521.623-.147.838-.273.371.167.734.147.356.27.688.525.418.417.521.564,1.147,1.357,1.465.937.978.478.731.108.587,1.086.873,1.25,1.359,1.253,1.212.587.834.877.981.687,1.357.834.9.878.46.585.694.417,1.145.875.567.9-.671-.375-1.147-.314-1.255.273-1.249.352-.8-.1-.837L269.546,32l-.168-1.044-.311-.729-.145-1.046.206-1.4.044-1.214.1-1.188-.313-.9-.1-.836v-1.19l-.207-.835-.629-1.047-.832-.31-.879-.315-.688-.584-.418-.663.583-.378.878.064h.9l.837-.211,1.4.04h.836l1.251.485.731.1,1,.037.315.587-.482.728-.771.216-.421.561-.375,1-.667,1.355-.165,1.5-.357,1.355.21,1.671.043,1.418L270.8,32.32l-.063,2.877.1,4.111-.1.942.166,1.107.209,1.922.04,1.312-.1.942-.044,1.774Z" fill="#FFFFFF"/><path d="M293.906,17.767l1.3.04,1.315.168,2.713,1.044,1.464.77,1.708,1.526.9,1.191,1.146,1.209.941.88.523.831,1.5,2.4.419,1.108L308,30.021l-.209,1.042-.169,1.044L308,33.154v2.567l-.275,1.816-.52.94-.773,1.626-.164.564-.253.17-.415.664-1.42,1.945-2.82,2.333L298.5,47.412l-2.045.793-2.3-.064-1.982.1-.837.1-1.668-.1-.564-.207-1,.061-1.712-.311-1.569-.69-1.356-1.108-.9-.731-.731-.522-.77-1.4-.589-.794-1.249-1.085-.625-1.042-.667-1.211-1.15-1.985-.064-.835-.04-1.5-.065-1.462-.146-1.358-.064-1.212.275-1.087L277,28.727l.521-1.252.524-1.148.356-.628.52-.9.375-.417.105-.732.668-.731.942-1.046.685-.414,1.191-1.082,1.672-.841,1.148-.52,1.317-.417,1.185-.207,1.211-.42h1.5l1.463-.1Zm.879,1.879-1.357-.314h-2.612l-1.5.418-1.357.729-1.464,1.149-.479.314-.457.771-.734.8-.626.935-.687,1.882-.312.831-.734,1.192-.562,1-.166.941.417.624.525.463.1.9-.25,1.458v1.883l.352,1.708-.04,1.568.313,1.835.938,1.565.563.881,1.525,1.042,1.044.418.668.1.417.314,1.211.525,1.19-.043,1.212.209.834.46,1.357-.212,1.192-.414,1.041-.418,1.839-1.047,1.711-1.462,1-1.292.52-2.149.312-2.025.419-.942.248-1.562-.147-1-.52-.774-.167-1,.167-.424-.1-.772.042-.94.211-1.145.371-.8-.2-.94-.731-.874-.837-.421-1.148-.938-.9-1.358-1.19-1.209-.835-.73-.94-.731Z" fill="#FFFFFF"/><path d="M120.013,69.062l-.1-.789-.042-3.486.042-.69.166-.564-.063-.838-.1-.688-.251-.981-.627-.69-.688-.414-.627-.628-.249-.728.771-.563,1.211-.171,1.358.064,1.085.147.731-.317.626-.144.9.144.98.066.9.314.836-.167.98-.043,1.629.043.875.207.94.311,1.317.17.98.417,1.043.627.9.771.877.628.689,1.148.668.729.209.939.271,1.148.1,1.21-.1.98.1,1.421-.313.731-.585.417-.625.461-.773,1.254-1.21.794-1.358.771h-1.148l-1.985.209h-3.964l-.627-.146-.459.31-.418.628-.209,1.148.043,1.084.312.8-.105.94-.667.939-.063.837.48.524.418.351-.063,1-.042,1.151-.27.353.166.731.772.691.795.731.667.628.209.874-.628.544-1.043-.171h-1.085l-1.107-.206-1.148-.1-1.253.04-.876-.209-1.21.439-.773.1-.9-.54.209-.519.793-.67.835-.837.731-.581.042-.524-.042-.982V80.8l-.1-.772.1-1.357.251-.728-.251-1.421-.1-1.085-.064-.9.1-1.151v-1.5l-.145-.584.209-1.466Zm8.414-8.934-1.106.061-1.044.147-.836-.041-.417.628.209,1.043.48,1.046-.167.833-.209,1.083-.355.8v1.148l.251,1.085.167.626-.313.792-.063,1.193.417.625h.9l.834-.147,1.044.106,1.356.1,1.357-.372.837-.731.73-.67.146-1.1.062-.669.628-.523.73-.478v-.73l-.419-.777-.791-.795-.313-1.187.062-1.045-.626-.624-.731-.585-.9-.312-.833-.317-.772-.248Z" fill="#FFFFFF"/><path d="M159.785,57.375l1.3.04,1.315.167,2.713,1.045,1.462.77,1.712,1.526.9,1.19,1.148,1.209.939.881.522.831,1.5,2.4.418,1.109.166,1.087-.208,1.042-.168,1.044.376,1.044v2.57l-.271,1.814-.521.939-.774,1.629-.166.564-.25.17-.419.664-1.418,1.945-2.819,2.333-2.86,1.632-2.046.794-2.3-.066-1.982.106-.836.1-1.67-.1-.564-.207-1,.06-1.712-.31L150.7,86.7l-1.357-1.1-.9-.731-.732-.522-.772-1.4-.585-.793-1.253-1.085-.626-1.046-.668-1.21-1.148-1.982-.063-.837-.041-1.5-.063-1.459-.145-1.358-.064-1.212.272-1.087.313-1.042.522-1.251.521-1.151.356-.625.521-.9.376-.414.105-.731.668-.731.94-1.043.688-.417,1.19-1.088,1.669-.835,1.148-.52,1.317-.417,1.19-.207,1.211-.421h1.5l1.461-.106Zm.876,1.879-1.356-.314H156.7l-1.5.418-1.356.73-1.463,1.147-.479.315-.459.771-.731.79-.627.946-.689,1.875-.313.834-.73,1.192-.565,1-.166.94.418.625.521.462.1.9-.251,1.458v1.879l.355,1.712L148.72,78.5l.314,1.839.939,1.562.563.877,1.524,1.045,1.045.417.667.1.418.314,1.211.525,1.19-.047,1.21.213.836.46,1.357-.212,1.189-.414,1.044-.418,1.837-1.047,1.712-1.462,1-1.291.522-2.153.313-2.022.418-.942.25-1.564-.147-1-.521-.773-.167-1,.167-.42-.105-.772.043-.94.208-1.148.375-.795-.209-.937-.73-.878-.836-.417-1.147-.935-.9-1.358-1.19-1.212-.835-.731-.939-.731Z" fill="#FFFFFF"/><path d="M190.98,80.17l-.21,1.042-.1.9.417,1.5,1.19,1.461,1.629.936.354.84-.417.333h-1.19l-.9-.23H189l-1.878-.04-1.463.04-1.314.27-.668.208-.522-.518-.063-.688.628-.629.73-.351.938-.9.21-1.148.061-1.083-.166-.838v-.584l.166-.875-.061-.9-.1-1.876-.146-1.565.041-.774.063-3.76.106-.521V68.061l-.21-.564-.209-.518V65.618l.105-.69.042-.348.062-1.258-.209-.584-.208-.564-.209-.939-.418-.417-.689-.584-.772-.417-.835.165-.481.354-.877.273-1.043.461-.69.831-.208.69-.522.356-.46.628-.792.585-.668-.315-.062-.523.166-.52.1-.584.043-.668-.147-.732.147-.69-.313-.77-.25-.689.041-.563.688-.42.522-.06,1.045.166,1.711.665.94-.247.625-.207.627-.171.939.064,1.523.314.836.144,1.671.379.876-.276.793-.141.627-.377.834-.043,2.088-.1h1.044l.877.314,1.149.314,1.211-.274.835-.207.981-.147h1.044l.208,1.148-.417,1.294-.563,1.462v2.087l-.586.314-.834-.211-.251-.775-.168-1.043-.667-1.1-1.212-.731-.772-.417-.417.165-.731.146-.793-.25-.982-.167-.73.167-.314,1.148v2.507l.043,1.918.1.69-.147.669-.062,2.566.168.94L190.4,72.3l-.147.563-.062,1.567.272.687.042,1.46.1,1.149.207.525-.145.874.209.69Z" fill="#FFFFFF"/><path d="M218.035,80.17l-.206,1.042-.1.9.417,1.5,1.19,1.461,1.631.936.352.84-.416.333H219.71l-.9-.23h-2.758l-1.878-.04-1.462.04-1.313.27-.667.208-.524-.518-.063-.688.626-.629.732-.351.939-.9.208-1.148.062-1.083-.167-.838v-.584l.167-.875-.062-.9-.105-1.876-.145-1.565.042-.774.064-3.76.1-.521V68.061L212.4,67.5l-.209-.518V65.618l.106-.69.04-.348.063-1.258-.209-.584-.208-.564-.208-.939-.419-.417-.688-.584-.774-.417-.834.165-.481.354-.877.273-1.042.461-.69.831-.209.69-.521.356-.459.628-.794.585-.669-.315-.061-.523.166-.52.1-.584.043-.668-.147-.732.147-.69-.313-.77-.251-.689.041-.563.689-.42.524-.06,1.042.166,1.71.665.942-.247.625-.207.628-.171.938.064,1.524.314.837.144,1.668.379.875-.276.795-.141.626-.377.833-.043,2.088-.1h1.048l.876.314,1.147.314,1.212-.274.832-.207.984-.147h1.042l.209,1.148-.418,1.294-.561,1.462v2.087l-.584.314-.837-.211-.252-.775-.167-1.043-.664-1.1-1.212-.731-.773-.417-.417.165-.729.146-.8-.25-.981-.167-.731.167-.317,1.148v2.507l.045,1.918.1.69-.148.669-.058,2.566.164.94.042,1.986-.148.563-.058,1.567.269.687.043,1.46.1,1.149.207.525-.142.874.207.69Z" fill="#FFFFFF"/><path d="M240.273,70.883l1.189-.146,1.046-.524.685-.27.667-1.045,1-.984.667.147.206,1.36-.1,1.1-.317.731.273,1.568.1,2.506-.792.727-1.085-.793-.481-.978-.937-.378-.881-.25-1.211-.792-1.293-.315-.833.315-.067.728.378.9.209,1.294-.27,1.254-.317.834.17.686.044.837.269.837-.166.875-.1.94.164,1.106.252.984.687.728.876.584,1.463.147,1.462-.311.624-.25,1.046-.067,1.043-.351,1.042-1.111.38-.454.311-1,.98-1.565.836-.25.522.314.1,1.087.061.728-.415.625.044,1.045.27,1.043-.167,1.151-.73.958h-1.61l-1.15-.127h-1.878l-2.254.064-1.251.164-1.3-.228-1.734-.1-1.4-.04-1.566.143H231.4l-1.252-.626.209-.622.939-.523.982-.628.73-.771.271-1.15.107-1.148.04-1.249.106-2.05-.106-.876.211-1.315-.147-1.042.042-1.4.48-.69-.066-.836-.52-.876.106-.731.166-.581-.208-.734.208-1.251.248-1.148.482-1.085-.1-1.255-.207-.937-.21-1.567-.209-.9-.834-.734-1.318-.978-.833-.792.314-.734,1.251-.206,1.148.166L234.74,58l1.395.351,1.044-.208,1.047-.25,1.148.107,1.042-.107,1.568-.27,1.458.166,1.15.04,1.251.378.8-.064.981-.1,1.251.1,1.528.691.456.56.209,1.526.167,1.3-.27,1.148-.522.167-1.046-.942-.416-1-1.252-.731-2.233-1.084-.942-.167-.833.167-.689.207-.879-.48-1.312-.311h-.984l-.834.417-.313.94.357,1.209.165,1.151-.312,1.189-.419,1.1.209.94.252.669.061,1-.208.878.042,1.043.21.837.687.268Z" fill="#FFFFFF"/><path d="M262.107,74.638l.462,1.211.166,1.252-.1,1.459-.525.673-.205.478.416.356.417.691.041,1.773.376,1.565.628.874,1.71.9.375.417-.479.25-1.042.164-1.3.044h-1.67l-.9-.1-.875.061-1.527.253-1.459.1-1.461-.356.269-.69.984-.625,1-1.042.461-1.668-.107-2.336v-2.4l.21-1.461-.045-2.676-.1-2.086v-.978l.1-2.57.106-1.671-.164-1.568-.147-1.145.1-1.355-.374-.315-.043-.878L257,60.548l-.8-.42-.564-.77v-.835l.564-.48.9.063,1.4.04h1.215l.664.311.793-.247,1.256-.1,1.6-.167,1.879.167,1.108.248.771.273h.834l.9.25,2.507,1.312,1.043.881.981,1.1.689,1.148.461,1.606.164,1.421-.06,1.19-.42.939-.834,1.11-.729.832-.522.733-.67.311-1,.421-.665.354-.316.481.522.416.731.521.668,1.606.274,1.568.1,1.354.419,1.632.313.978.1.84.459,1.145.834.522,1.109.17.563.036-.416.9-.881,1.6-1.354.943-.688.27-1.4-.584-.9-1.043-.249-.522-.526-.731-.478-1.084-.625-1.626-.629-1.924.067-1.209-.275-2.025-.626-1.108-.983-1.356-1.416-.731-1.4.164-1.146.567Zm2.925-14.51-1.043.106-.732.519-.586,1-.247,1.462-.17.984-.352.684-.064.628.794.253.144.373-.041,1.083V69.9l.522.564.982.523.939-.1.312.2,1.317-.1.939-.209,1.607-1.254.793-1.462.316-.311.206-.731-.062-.564-.418-1.045-.1-.83-.105-.8-.668-1.3-.728-.685-.483-.624-.624-.464-1.046-.31-.768-.168Z" fill="#FFFFFF"/><path d="M298.71,68.378l-.792.831-.773.734-.208.834-.418.584-.478.731v1.044L296,75.994v1.32l-.1.871-.105,1.109.355,1.5.314,1.254.208.731.418,1.253.793.9.775.564.476.588.044.874-.732.23-1.774-.063-1.92-.1-1.21-.167h-1.461l-1.3.206-1.773.064-.628-.481.416-.457,1.19-.48.691-.881.521-.79.147-.772-.251-.9-.107-.834-.1-1.045.208-1.609V77.354l-.065-3.069-.248-.692-.273-.94-.25-.561-.625-.524-.8-.685-.209-.773-.417-.9-1.084-.564-.375-.834-.567-1-.584-1.042-.417-.67-.834-.832-1.4-1.571-1.11-.831-.726-.794-.147-.734-.732-.458-1-.481-.522-.56.834-.417,1.315-.168,2.089-.106,1.4.208,1.67-.415,1.46-.313,1.568-.1.584.482-.272.73.063.664-.522.628-.209.728.461.837.1.793.207.836.689,1.084.564,1.045.1.793.835.461.834.061.584.63.522,1.085.773.831.832-.041.691-1,.668-1.148.9-1.148.52-.943.773-1.145.626-1.045.377-.837-.108-1.042-.689-.981-1.084-.791-.478-.733.375-.772h.835l1.566.044,1.293.1,1.526.694,1.712-.168h.792l.729.625-.374,1-1.147.356-.733.689-1.041,1.3-.878,1.315-.692.834-.456.561-.585.69-.671.837-.311.667-.482.689Z" fill="#FFFFFF"/><path d="M42.518.015c.184.238.488.594.153.915C43.3.85,43.324.161,44.2.32c.218.455-.124.519.152.915.643-.018.77-.55,1.219-.762.891.605,2.4-.2,3.2.609a9.058,9.058,0,0,1,1.675-.3c.352-.375.617-1.07,1.372-.61.115.572-.582.332-.61.762.819-.437,1.436.166,1.982.457,1.023-.608,2.359.754,3.2-.152-.672-.3-1.907-.025-2.286-.61-.68-.119-.914.2-1.523.153C52.428-.335,53.828.1,54.708.015c1.323.608,3.445.414,4.876.915.574.117.729-.187,1.219-.152.787,1.192,3.666.295,4.418,1.523.359,0,.449-.262.915-.152a3.469,3.469,0,0,0,2.438.609,1.781,1.781,0,0,0,1.219.457c.079.226.226.385.3.61h.915c1.375,1.268,3.783,1.5,5.028,2.9.53-.123.587.226,1.068.151.2.565.736.786,1.372.914.188.32.422.6.609.915.365-.063.331.278.761.152a4.046,4.046,0,0,0,1.982,1.523c.035.729.868.654,1.065,1.22a5.951,5.951,0,0,1,1.373.457c.468.5.789,1.141,1.218,1.676.2.211.719.093.914.305-.063.367.279.331.152.761,1.634,1.06,2.523,2.863,4.115,3.962.083.528.407.812.456,1.371.3.614,1.118.712,1.526,1.22a1.668,1.668,0,0,0,1.675,1.828c-.337,1.505.8,1.533,1.524,1.981-.606,1.263.837,1.528.914,2.591.071.478-.19.622-.458.761.461.547,1.138,1.653.458,2.438-.026.534.535.48.762.761.011.7.44.983.3,1.83a7.437,7.437,0,0,1,1.373.914c-.254,1.2,1.186,1.709.3,2.59-.115.572.583.333.61.762a6.275,6.275,0,0,1,.152,1.828c.153.609.65.875.914,1.372-.278.863.345,1.029,0,1.828.035.575.478.74.61,1.219.089.495-.1.708-.152,1.066.168.967.956,2.355.3,3.2a8.243,8.243,0,0,1,.305,1.523c.032.438-.038.774-.305.914.65,1.245.194,3.064.457,4.419.123.529-.226.586-.152,1.067-.1.557.331.584.3,1.066-.548.264-.285,1.342-.762,1.676a1.19,1.19,0,0,1,0,1.219c-.082.539.541.375.457.915-.135,1.336-1.174,1.771-1.067,3.352-.1.508-.473.746-.609,1.218a3.765,3.765,0,0,0,.3,1.983c-.279.226-.379.634-.761.761a1.774,1.774,0,0,1-.457,1.524,9.188,9.188,0,0,0-.153,1.827,7.11,7.11,0,0,0-.61,1.829,8.382,8.382,0,0,0-.914.913c.014.242-.071.583.153.61-.52.5-.656,1.377-1.219,1.829.11.466-.262.448-.152.914-.44.068-.362.655-.761.762.067,1.034-.784,1.148-.762,2.133-.415.195-.44.781-.915.915a1.278,1.278,0,0,1-.608,1.219c-.328.283-.277.943-.763,1.066a6.779,6.779,0,0,1-1.525,1.981c-.021.537-.435.681-.456,1.219-.556.1-.742.577-1.219.761.056.669-.435.783-.457,1.372a7.964,7.964,0,0,0-1.829,1.371c-.567.094-.963-.39-1.372,0-.112.52.562.253.612.611-.217.9-1.153,1.081-1.525,1.828-.489-.136-.477.235-.611.456-.271.019-.321-.185-.608-.151-.236.324-.552.566-.764.915-.317-.066-.4.1-.608.149-.685.638-1.463,1.179-2.133,1.831-.669-.009-.815.5-1.371.609,0,.358.262.448.152.914-.65.468-1.342.894-1.98,1.371-.393.677-1.464.67-1.829,1.371-.913-.15-1,.523-1.828.459-.464.247-.658.765-1.219.912a3.98,3.98,0,0,1-1.219-.456c-.809.158-.931,1-1.372,1.523-.613.1-.869-.145-1.373-.151a4.368,4.368,0,0,1-2.131.456c-.79.125-1.059.77-2.135.609-.375.287-.843.478-1.219.762a20.4,20.4,0,0,1-2.588.152,4.02,4.02,0,0,0-1.22.609c-1.062-.111-2.147.446-3.047,0a2.407,2.407,0,0,1-1.372.305c-.2-.669.729-.623.3-1.066-.767-.106-.758.562-1.371.61-.479.074-.6-.217-.913-.3-1,.586-2.135.093-3.2.609-.669-.753-2.648-.195-3.5-.763-.983.052-1.668.245-2.133-.455-.024-.38.24-.473.3-.763.635-.076.672.444,1.371.3.5.042.323-.589.762-.609,1.416.34,2.491-.679,4.266-.456a2.987,2.987,0,0,0,1.068-.458c.43-.127.394.215.762.154a3.342,3.342,0,0,0,1.217-.46c2.337.052,3.433-1.135,5.638-1.219,1.1-.571,2.521-.831,3.2-1.827.482-.075.538.276,1.067.152,1.574-.609,3.19-1.179,4.723-1.827a1.648,1.648,0,0,0,.762-.916.981.981,0,0,0,.762-.151,12.647,12.647,0,0,1,4.571-2.895c.558-.305.61-1.12,1.373-1.221a3.08,3.08,0,0,1,.455-.912,3.3,3.3,0,0,1,.915-.3c.162-.51-.048-.522.153-1.068.944-.171,1.257-.976,2.132-1.22.428-1.248,1.517-1.834,2.285-2.742-.076-.889.521-1.105.3-2.133A12.117,12.117,0,0,0,83.964,82.3a.745.745,0,0,0-.3-.76c.735-.839.729-2.419,1.674-3.049A7.341,7.341,0,0,1,86.4,76.2V74.983c.308-.456.772-.752,1.067-1.22a4.975,4.975,0,0,1,.916-2.894c.363-.094,1.1.191,1.216-.153.283-.841-.968-.15-.913-.761-.289-1.152.87-.859,1.067-1.524.112-.52-.561-.252-.61-.611a5.9,5.9,0,0,0,.3-2.284c.464-.095.3-.82.763-.915.094-.413.636-.379.61-.913.186-.7-.534-.483-.61-.916-.185-1.453.344-2.194.305-3.5-.073-.478.41-.4.457-.762-.467-.448-.331-1.5-.762-1.981a3.148,3.148,0,0,0-.153-1.98c.04-.469.33-.686.458-1.068-.264-1.023.253-2.684-.611-3.656.04-.882.4-.946.153-1.829-.344-.771-.845-1.391-1.219-2.133-.285-.29.091-.276,0-.762a4.617,4.617,0,0,0-.761-1.219c.266-1.639-.654-2.089-.762-3.351-.2-.4-.808-.412-.915-.915.6-2.093-.816-3.163-1.829-4.114V34.6c-.514-.857-1.489-1.253-1.827-2.285-.312-.147-.6-.312-.914-.458-.079-.84.01-1.512.456-1.828-.264-.5-.4.4-.914.151-.383-.784-1.363-.972-1.219-2.285a12.5,12.5,0,0,0-2.133-.914c-.178-.726.461-1.139.154-1.523-.352-.281-1.159.223-1.525-.3-.453-.388.387-.744,0-1.067-.43-1.042-2.312-.634-3.2-1.219.022-.734-.767-.655-.609-1.523-.123-.386-.628-.389-.915-.61-.412-.45-.7-1.022-1.371-1.219-.559.34.537.7,0,1.067-1.075-.042-1.446-.789-2.135-1.219.381-.786-.446-1.651-1.065-1.372-.158.768.9.316.762,1.067-1.171.825-1.886-1.06-3.352-.915-.172-.285-.59-.323-.761-.608-.849-.011-1.285-.376-1.982-.154a1.843,1.843,0,0,0-.915-1.066H59.888a30.655,30.655,0,0,0-6.4-1.218c-.481-.074-.344.467-.913.3-.864-.3-1.97-.368-2.9-.61-1.115.411-2.811.237-4.114.458-.573.391-1.522.408-1.98.914-2.121.013-4.088.178-5.029,1.372a3.294,3.294,0,0,0-1.371.152,2.921,2.921,0,0,0-1.22,1.066c-1.082.087-1.251,1.085-2.438,1.067-.341.623-1.24.689-1.828,1.067-.624.34-.67,1.26-1.371,1.523-.476.161-1.374-.19-1.829.306-.268.512.1.78,0,1.523a2.163,2.163,0,0,0-1.066.457c-1.518,1.631-3.157,3.141-4.724,4.723-.316,1.308-1.244,2.005-1.982,2.9-.421.227.266.622-.151.762-.19.571-.769.755-1.066,1.219.174,1.138-.656,1.274-.763,2.133-.108.565.261.653.154,1.218a.988.988,0,0,1-.762.153c.415.908-.779,1.156-1.068,1.828.019,1.289-.907,1.633-.609,3.2-.248.31-.32.8-.609,1.066.136,1.508-.525,2.219-.3,3.809-.025.483.405.51.3,1.068.1.556-.33.584-.3,1.066-.161.833.427,1.518,0,2.133.306.608.138,1.691.609,2.134-.36.378,0,.9,0,1.371a11.36,11.36,0,0,0,.914,2.133v1.22c.657,1.983,1.165,4.117,2.591,5.332-.126.43.215.394.153.762A10.885,10.885,0,0,0,22.1,67.82a3.462,3.462,0,0,0,1.676,2.287c.149.663.739.885.914,1.524.817.6,1.5,1.339,2.286,1.98a26.054,26.054,0,0,0,2.438,1.676c.047.359.529.284.457.762a15.514,15.514,0,0,1,2.894,1.677c1.147.072,1.449.989,2.743.913,1.024.906,2.814,1.047,4.115,1.675.665.107.858-.258,1.524-.151a2.716,2.716,0,0,1,1.219.609c1.755.041,4.319.489,5.789-.153.273-.018.322.187.61.153.91-.512,2.513-.331,3.352-.913,1.371.255,1.764-.471,2.894-.458.3-.106.408-.406.458-.762.917-.049,1.246-.683,1.98-.913a2.651,2.651,0,0,0,.459-.611,4.508,4.508,0,0,0,2.438-1.676c1.677-.252,2.228-1.63,3.351-2.438.466-.11.449.263.914.154.657-.15.418-.957.306-1.524a1.418,1.418,0,0,0,.608-.915,3.02,3.02,0,0,0,.763-.609,6.592,6.592,0,0,1,.3-1.524,3.114,3.114,0,0,1,.913-.457c-.434-1.174.324-1.988.762-2.742-.491-1.614.4-3.014.915-4.116a10.482,10.482,0,0,0-.61-1.828c.433-1.68-.452-2.472-.609-3.961-.075-.582.538-.477.762-.762.143-.906-.828-.7-1.372-.914-.067-1.1-.994-1.342-.914-2.591-.4-.209-.421-.8-.763-1.066-.671.04-.464.957-.76,1.371-.613.2-.826.8-1.067,1.372.135.574.211,1.211,1.067,1.065.086.5-.105.71-.153,1.067.138.624.853.671,1.066,1.22.66.05.375-.844,1.066-.762a9.129,9.129,0,0,1,.307,2.133,1,1,0,0,1-.763.152c.2,1.417-.841,1.6-1.067,2.591a2.451,2.451,0,0,1,.915.457c.334-.325.236-1.085.915-1.067.683-.024.634.685.608,1.372-.105.606-.669.751-.915,1.218.09.318.321.492.458.762-.676,1.153-.628,3.03-1.677,3.81.076.48-.273.539-.152,1.066a.423.423,0,0,0-.3.458c-.677.085-.721.8-1.37.914-.6.089-.18-.837-.916-.61-.494.607.576.665.611,1.22-.085.728-.6,1.031-1.067,1.371-.069.54-.514.7-.609,1.219A4.3,4.3,0,0,0,60.5,73c-.075.481.276.538.154,1.067-.369-.063-.334.278-.764.153a4.183,4.183,0,0,0-1.065,1.066A3.887,3.887,0,0,0,57.3,76.2c-.456.359-1.339.286-1.677.762-.273.02-.321-.186-.61-.153-1.352.832-3.247,1.12-4.724,1.829a5.4,5.4,0,0,0-1.827.305c-.992-.125-2.76-.4-3.5.152-.35.116-.511-.237-.915-.305-1.339-.222-3.329.2-4.113-.609-.529-.123-.586.227-1.067.152-.525-.287-1.115-.51-1.372-1.067-.461.047-.545.473-1.219.305-1.031-.238-1.356-1.183-2.743-1.065a3.094,3.094,0,0,0-.914-.916H31.4a2.58,2.58,0,0,1-.611-1.217,13.8,13.8,0,0,0-1.98-.915,3.522,3.522,0,0,0-1.98-1.828,9.637,9.637,0,0,0-2.744-2.743c0-.36-.262-.449-.151-.915-.944-.936-1.38-2.379-2.438-3.2a2.423,2.423,0,0,0-1.068-1.829c-.11-1.312-.968-1.875-1.066-3.2a9.291,9.291,0,0,1-.914-1.828A2.846,2.846,0,0,1,18.6,56.7c-.022-.282-.516-.094-.609-.3a3.192,3.192,0,0,0,.305-1.676,8.27,8.27,0,0,0-.458-1.372,22,22,0,0,0,0-3.808c.538-1.482-.334-2.519-.3-3.963.147-.665.783-.841,1.066-1.371-.244-.873.588-1.244.152-1.828.1-.561.562-.759.915-1.067.3-1.776.169-3.482,1.523-4.419-.2-1.014.635-.989.458-1.98a1.847,1.847,0,0,0,.762-1.371c.677-.288.752-1.178,1.675-1.219V31.252a3.687,3.687,0,0,0,1.676-2.285c1.254-.22,1.371-1.576,2.591-1.829.126-.382.417-.6.457-1.067.743-.222.94-.989,1.829-1.066.55-.669.816-1.622,1.828-1.829a3.142,3.142,0,0,1,.456-.914c.47-.114.294.418.763.3.642-.07.731-.692,1.066-1.067,2.215.284,1.858-2,4.115-1.676.563-.2.489-1.033.914-1.371a11.727,11.727,0,0,1,3.047,0c.607.047.413-.7.915-.762.477.031,1.118-.1,1.371.152.578-.183.712-.81,1.675-.609a1.023,1.023,0,0,1,.458,1.066c.466-.11.555.156.914.153.457-.454-.385-.389-.152-1.068a3.564,3.564,0,0,1,2.133.61c.343-.329-.126-.519,0-1.066.751-.35,1.117-.16,1.981,0,.479.073.6-.216.915-.3,1.49.135,2.766.484,4.266.61a12.662,12.662,0,0,0,3.657.913c.412.35,1.057.467,1.372.915a5.321,5.321,0,0,1,2.131.762c.431.126.4-.215.762-.153.491-.032.372.545.61.762.892-.027,1.111.616,1.676.915.55.313,1.252.475,1.524,1.066.606-.047.766.352,1.371.306.52.749,1.309,1.229,1.83,1.98.507,0,.519.5,1.065.457.518.905,1.625,1.22,2.134,2.133.43-.126.394.214.761.152.345.874,1.314,1.124,1.524,2.133,1.319.765,1.809,2.357,3.048,3.2A2.934,2.934,0,0,0,81.982,34.6a1.45,1.45,0,0,0,.459,1.219c-.1.408-.439.579-.61.914.239.828.1,2.035.914,2.286.115-.533-.461-1.151,0-1.524.617-.388.8.766,1.219,1.067.2.592.842,1.094.456,1.828-.662.1-.843-.275-1.066-.61-.283.53-.92.706-1.067,1.372.086.828.751,1.077.762,1.981.295-.162.037-.878.457-.914.793.122.537,1.29,1.218,1.523a2.846,2.846,0,0,1-.152-1.219c.107-.581-.618-.734-.152-1.219,1.045-.078.915,1.015,1.373,1.524a7.113,7.113,0,0,0,.76,2.133c-.064,2.147.877,3.287,1.372,4.876a3.243,3.243,0,0,1-.154,1.371c.644,2.9.264,6.039.459,8.838.038.546-.459.558-.459,1.067-.12.527.229.585.154,1.068a7.465,7.465,0,0,1-.762,3.2c.091,1.664-.659,2.487-.762,3.961-.185.626-.754.87-.608,1.827-.144.417-.658.5-.916.916-.09.144.064.449,0,.61-.035.087-.239.17-.3.3-.142.293-.2.583-.456.762-.039.446.344.469.3.915.008.464-.322.592-.456.913-.238.22-.121.8-.61.762-.057.857-.748,1.081-.762,1.981-.924.548-1,1.949-1.828,2.591-.5.967-1.349,1.595-1.829,2.59-.6-.039-.565.55-1.219.457-.133.729-.755.972-.762,1.829a.417.417,0,0,0-.3.456,21.75,21.75,0,0,1-5.485,4.266c-.8.629-1.1,1.743-2.591,1.676-.908.872-2.078,1.479-3.048,2.285a3.434,3.434,0,0,1-.914-.3,5.5,5.5,0,0,0-2.59,1.677c-1.363.161-2.888.159-3.658.915H57.45c-.709.255-1.1.83-1.828,1.066a3.458,3.458,0,0,1-.914-.3c-1.568-.006-2.023,1.782-3.657,1.219-1.906.8-4.72.151-6.856.457-1.35-.267-2.25-.749-3.809-.457a1.638,1.638,0,0,1-.762-1.066,2.5,2.5,0,0,1-2.438-.153c-.547-.038-.559.458-1.067.458-.787-.382-1.939-.4-2.286-1.219-1.548.615-1.846-1.152-3.5-.915-.1-.355-.507-.407-.61-.761h-.914c-.226-.741-1.435-.494-1.828-1.067-.574.115-.729-.186-1.22-.154a4.806,4.806,0,0,1-1.218-1.369c-.538-.02-.681-.436-1.219-.458-.064-.546-.487-.733-1.067-.761-.188-.32-.421-.6-.609-.915-.566-.093-.957-.364-1.523-.457-.6-.77-1.582-1.161-2.134-1.982-.761.153-.746-.473-1.372-.456a13,13,0,0,1-.761-1.067c-1.188-.285-1.638-1.308-2.591-1.829a5.264,5.264,0,0,0-2.286-2.743c-.447-1.43-1.578-2.179-2.437-3.2.074-.481-.276-.538-.153-1.067-.259-.3-1.068-.048-1.219-.457a12.259,12.259,0,0,0-2.743-5.027,7.608,7.608,0,0,0-.457-2.439c-.75-.569-.963-1.677-1.371-2.589-.021-.589.119-1.34-.305-1.524a3.268,3.268,0,0,0,.152-1.372c-.066-.542-.551-.667-.761-1.067.035-1.252-.678-1.76-.457-3.2a18.573,18.573,0,0,1-.914-5.332c-.122-.529.227-.586.152-1.068-.07-.945-.529-1.5-.456-2.59.091-.72.585-1.039.913-1.523a4.865,4.865,0,0,1,0-3.505c-.278-.765-.809-2.106-.152-2.895a6.585,6.585,0,0,0-.153-2.133,10.1,10.1,0,0,0,1.067-2.743c.075-.837-.87-.654-.61-1.675.035-.524.454-.664.916-.762.293-.952-.034-1.4-.154-2.286a.572.572,0,0,1,.609-.609v-.915c.332-.452.832.055,1.22-.457-.047-.664-.4-1.022-.458-1.676.685-.535.74-1.7,1.372-2.286.454-.218.518.125.915-.152,1.056-.772,1.173-2.483,1.675-3.809a5.814,5.814,0,0,1,1.067-.61c.01-1.716,1.566-1.887,1.981-3.2.317-.333.492.134.761-.152v-.914a3.816,3.816,0,0,0,1.372-2.438c.924-.041.675-1.255,1.676-1.218.264-.295.345-.773.609-1.067.482.024.51-.406,1.067-.306.776-.543,1.17-1.47,2.133-1.827.211-.2.094-.72.306-.915.949-.32,1.26-1.279,2.588-1.219A10.629,10.629,0,0,0,23.32,6.872c.465.111.448-.263.914-.151A10.365,10.365,0,0,0,26.825,5.2h.761a1.607,1.607,0,0,0,1.066-1.219c.368-.062.331.278.763.152A43.352,43.352,0,0,1,39.471.473h.915A7.309,7.309,0,0,1,42.518.015ZM40.994,1.387c.315.269,1.234.222,1.068-.457C41.607.983,41.133,1.018,40.994,1.387ZM60.652,2.453c-.022-.69-.809-.612-1.525-.609-.277-.041-.854-.548-1.066-.152A3.468,3.468,0,0,0,60.652,2.453ZM56.84,4.739c.013-.52-.563-.451-1.065-.457C55.675,4.889,56.354,4.718,56.84,4.739ZM62.479,6.11a1.364,1.364,0,0,0,.609-.609C62.5,5.419,61.7,4.76,61.107,5.2,61.647,5.42,61.6,6.226,62.479,6.11Zm4.418.915c-.75-.576-2.334-1.856-3.351-.762.268.7,1.79.138,1.828,1.066-.554.441-1.177-.086-1.523.61a2.166,2.166,0,0,0,1.98.609c.424.515,1.875,1.376,2.589.61-.419-.342-1.012-.511-1.37-.915-.578-.132-1.424,0-1.219-.914,1.048-.193,1.959.421,2.743,0,.133.223.228.484.61.457C69.121,6.846,67.591,6.864,66.9,7.025Zm-7.922-.3c.347.042.573-.038.609-.306-.217-.037-.258-.25-.457-.3C59.079,6.317,58.91,6.4,58.975,6.721Zm2.132.456c.232.235,1.047.272.915-.3-.723.062-1.049-.272-1.83-.151C60.188,7.182,60.728,7.1,61.107,7.177Zm1.525.305a.991.991,0,0,0,.761.152C63.539,7.074,62.644,7.029,62.632,7.482Zm9.6,1.828A1.194,1.194,0,0,0,70.86,8.4C70.868,9.15,71.787,8.994,72.232,9.31Zm-.763,1.677c-.171.015-.237-.222-.3,0A.154.154,0,0,0,71.469,10.987Zm-2.134,5.18c-.178.024-.431-.026-.456.152C69.059,16.3,69.312,16.346,69.335,16.167ZM58.517,20.28c-.689.036-1.5,1.056-1.98,1.22a11.472,11.472,0,0,0-1.067,2.438,4.594,4.594,0,0,0,.915,3.2,3.535,3.535,0,0,1,2.132.61c.33-.484.982-.646.762-1.677.639-.579.718-1.719,1.068-2.59V21.348C59.812,20.8,59.322,20.239,58.517,20.28ZM48.156,28.2a15.8,15.8,0,0,0,.762-2.438c-.382-1.114-.123-2.078-.762-3.046-.118-.035-.3,0-.3-.153-.967-.053-1.235.593-1.829.914-.6,1.178-1.468,2.088-1.372,3.961.35.616,1.541.391,1.829,1.067A4.9,4.9,0,0,0,44.5,29.575c.208.668.02.784-.152,1.372.216,1.309-.657,2.08-.457,2.895.874.192,1.784-.168,2.743.153A7.494,7.494,0,0,0,47.852,31.4,6.555,6.555,0,0,1,48,29.271c-.233-.327-.65-.467-.914-.762C47.647,28.61,47.674,28.179,48.156,28.2Zm16,7.771a25.488,25.488,0,0,1,1.372-2.285V32.471c.324-.235.569-.551.915-.763a6.182,6.182,0,0,1,1.524-3.047c.186-1.689.369-3.538-1.371-3.656a4.293,4.293,0,0,0-1.982.761,17.189,17.189,0,0,0-1.524,5.181c.281.228.38.636.763.761.5.062.984.133,1.067.611-.283.665-1.382.116-1.983.152-.625.593-.633,1.8-.913,2.742a1.888,1.888,0,0,0,.306,1.373c-.69.46-.025,1.189.3,1.522A3.288,3.288,0,0,0,64.154,35.975Zm-8.989-7.618a4.826,4.826,0,0,0-.761,2.895,4.413,4.413,0,0,0-.915,1.829c.026.43.28.634.3,1.066-.486.326-.906.718-1.369,1.066a7.132,7.132,0,0,0-.611,4.724,7.2,7.2,0,0,0,3.049.152,26.236,26.236,0,0,0,1.523-4.114c-.231-.734-1.424-.506-1.828-1.066-.092-.547.907,0,.76-.609-.431-.027-1.045.131-1.065-.3.383-.964,1.275-.046,2.133-.153.451-.413,1.022-.7,1.219-1.371a7.158,7.158,0,0,1,.76-3.5A4.428,4.428,0,0,0,55.165,28.357Zm-17.522.761c.478.073.622-.19.762-.457C37.968,28.631,37.574,28.643,37.643,29.118Zm6.7,5.486c.073.486,1.013.1,1.219.457-.406.71-1.143.294-1.828.152-1.094.328-.824,2.022-1.067,3.2a18.019,18.019,0,0,1,.609,2.9c1.91.082,2.473-1.183,3.657-1.828a.747.747,0,0,1,.3-.762c.151-.607-.456-.459-.3-1.067a3.427,3.427,0,0,0,.3-1.828c-.162-.65-.86-.765-.914-1.523C45.73,34.464,44.451,33.946,44.347,34.6ZM68.574,46.185c.61-1.526,2.136-2.131,2.286-4.115.569.163.434-.378.913-.3a2.058,2.058,0,0,1,1.219-1.218c.35-.871,1.062-1.377,1.22-2.439a5.058,5.058,0,0,1-.152-1.828c-.728-1.46-2.268-.561-3.2.153-.517,1.562-2.207,2.6-1.829,4.571-.326.181-.851.164-1.066.457-.278,1.4-1.216,2.137-1.676,3.352a9.926,9.926,0,0,1-1.524,1.066,7.674,7.674,0,0,0-.457,3.658c.917.207.6-.82.913-1.219a8.251,8.251,0,0,0,1.373-.458c.311-.4.213-1.208.61-1.523C67.791,46.418,67.946,46.065,68.574,46.185ZM29.567,35.671c-.148.553.852.325.762,0C30.039,35.385,29.947,35.654,29.567,35.671Zm-3.961,1.218c.047-.205.216-.291.151-.609H25.3C25.258,36.628,25.337,36.853,25.606,36.889Zm-1.372,1.677a.573.573,0,0,0,.61-.61c-.2-.008-.212-.194-.458-.152A.989.989,0,0,0,24.234,38.566Zm-2.742.152c.216.059.256.183.457,0-.018-.186-.045-.361-.305-.305C21.645,38.567,21.52,38.594,21.492,38.718Zm6.4,1.371c.136-.121.676-.933,0-.914C28.057,39.565,27.428,39.9,27.89,40.089Zm31.694.458c.155.505.844.477.763,1.218-.117.682-1.2.741-.611,1.676.833-.081.832-1,1.067-1.676,1.138.174,1.17-.76,1.525-1.371C61.966,39.225,59.6,38.871,59.584,40.547ZM20.577,41.918c.46.235.4-.789.151-.762C20.792,41.523,20.452,41.487,20.577,41.918Zm-.305,1.523c.029-.437.6-1.113.305-1.371C20.24,42.264,19.519,43.1,20.272,43.441Zm26.056,6.247v.3c.274.692,1.083.846,1.067,1.828.193.213.746.067.761.458-.022.378-.029.74.3.762.454-.264.583-1.471,1.371-.914a2.157,2.157,0,0,1-.914,1.066c-.134.374-.137.879-.609.915-.546.088-.464-.452-.457-.915-.617-.45-.648-1.485-1.677-1.524a14.394,14.394,0,0,0,.153,2.285c.689.181.34-.674,1.067-.457.062.368-.279.332-.153.762.533-.016.959.86.762,1.068-.6-.214-1.2-.42-1.829-.61a5.414,5.414,0,0,1-.152-1.524c-.19-.319-.7-.781-.3-1.219A20.923,20.923,0,0,1,44.2,49.537c-.495.088-.71-.1-1.067-.153a5.74,5.74,0,0,1-1.372.3.418.418,0,0,1-.456.3,3.1,3.1,0,0,1-.914.914,1.413,1.413,0,0,1-.61.914.729.729,0,0,1-.457.915c.017.57.916.8.457,1.372-.908.094-.8-.828-1.828-.611-.562.15-.785.639-1.067,1.068-.845.272-1.077,1.158-1.829,1.524-.455-.283.194-1.092-.152-1.219-.079.531-1,.223-1.524.3a4,4,0,0,1-1.371-1.22.54.54,0,0,0,0-.913c-.989-.158-.622.9-.763,1.218-.378-.022-.471.24-.761.306-.1-.414-.637-.38-.609-.915a3.393,3.393,0,0,0,.151-1.371c-.011-.344-.33-.416-.3-.762s.387-.164.3-.61c-.655-.148-.416-.956-.3-1.523a2.422,2.422,0,0,1-1.067-.609c-.081-.59.273-.744.153-1.372-.725-.189-1.383-.446-1.371-1.371.632-.174.593.32,1.066.305.024-.836-.768-.858-1.219-1.22-.486-.529-.834-1.2-1.675-1.371-.889.381-2.414.127-2.286,1.524.458.339.531.18,1.219.153A2.878,2.878,0,0,1,25,47.1c-.479.425-.8.187-1.37,0a21.114,21.114,0,0,1,.761,1.98c.487.326.908.717,1.371,1.067.748,1.234,1.951,2.011,2.743,3.2a22.166,22.166,0,0,1,2.134,3.962A5.2,5.2,0,0,0,31.7,60.2v1.066c1.234,1.306,2.289,2.792,3.5,4.116-.112.468.419.291.3.762,1.325,1.264,2.978,2.2,4.42,3.35h3.046a3.066,3.066,0,0,1,1.524-.608c.469-.115.293.418.762.3.35-.463,1.119-.507,1.523-.914.253-.359.049-1.173.611-1.219a9.118,9.118,0,0,0-.153,1.828c.431.126.4-.215.762-.153a3.9,3.9,0,0,0,.914,1.677c.856.783,2.118.657,3.353,1.066.324-.538,1.507-.22,2.286-.306.955-.719,1.9-1.446,2.893-2.133a3.132,3.132,0,0,1,1.219-1.523,32.479,32.479,0,0,1,1.372-3.352v-.915c.226-.18.237-.575.457-.762.126-.431-.215-.394-.151-.762.663-1.063.715-2.734,1.369-3.808a2.466,2.466,0,0,1-.3-1.372c.2-.211.721-.093.917-.3a4.268,4.268,0,0,1,.456-1.982c.073-.479-.467-.344-.3-.914.307-.4,1.012-.409.914-1.218-.952-.654-1.732-2.477-3.352-1.524-.2-.322.075-.45-.153-.915-.387-.017-.3-.51-.3-.913a4.3,4.3,0,0,1-1.98-2.286c-.607.3-1.323-.506-2.134,0a2.573,2.573,0,0,1-.458-1.219A11.448,11.448,0,0,0,52.728,43.9H50.9c-.081.528.226,1.446-.3,1.525a.824.824,0,0,1-.914-.763c-.183-.44.913-.695.152-.762H48.766c-.211-.127-.491-.636-.762-.761-.475-.221-1.35-.034-1.829-.3-.081-.046-.166-.438-.3-.457a3.9,3.9,0,0,1-2.285-.152c-.73,1.2-1.934,2.563-1.372,4.571C43.605,47.739,43.926,49.754,46.328,49.688Zm38.855-4.571c.041-.347-.038-.572-.306-.608C84.912,44.778,84.723,45.271,85.183,45.117Zm-67.5,40.836c-.282.7.824.787,1.066.457C18.458,86.061,18.206,85.673,17.682,85.953Zm32.455,12.19c.53.186,1.144.545,1.22-.305C50.949,97.939,50.405,97.9,50.137,98.143Z" fill="#FFFFFF" fill-rule="evenodd"/><path d="M71.165,10.987c.067-.222.133.015.3,0A.154.154,0,0,1,71.165,10.987Z" fill="#fff" fill-rule="evenodd"/><path d="M82.9,40.851c.4-.046.5.211.458.61h-.609C82.68,41.142,82.849,41.057,82.9,40.851Z" fill-rule="evenodd"/><path d="M49.527,46.489c.746.271.8,1.229,1.067,1.981-.462.055-.316-.5-.457-.763a.983.983,0,0,1-.761-.152C49.3,47.075,49.65,47.018,49.527,46.489Z" fill="#FFFFFF" fill-rule="evenodd"/><path d="M52.424,46.794c.173.479-.242.369-.306.609a.42.42,0,0,1-.3-.457A.857.857,0,0,1,52.424,46.794Z" fill="#FFFFFF" fill-rule="evenodd"/><path d="M56.84,46.946a.731.731,0,0,1-.76,1.066C55.706,47.526,56.2,46.891,56.84,46.946Z" fill="#FFFFFF" fill-rule="evenodd"/><path d="M46.328,49.688c-.224-.241-.314-1.209.3-1.066C46.872,48.945,47.206,49.862,46.328,49.688Z" fill="#FFFFFF" fill-rule="evenodd"/><path d="M50.441,49.537c-.844.184-.925-.4-1.371-.61.114-.344.854-.06,1.218-.152C50.226,49.141,50.568,49.106,50.441,49.537Z" fill="#FFFFFF" fill-rule="evenodd"/><path d="M56.537,48.775c.266.139.53.283.457.762h-.609A.994.994,0,0,1,56.537,48.775Z" fill="#FFFFFF" fill-rule="evenodd"/><path d="M55.012,49.231c.316.544-.386,1.181-.15,2.133.489.034.644-.269,1.218-.152-.046.869-1.111.718-1.676,1.067a5.008,5.008,0,0,1-2.591-.61c-.58-.224-.029.681-.61.458.124-1.078-.824-1.3-.152-2.134.607.1.659.764.915,1.219a2.477,2.477,0,0,1,1.067.762C54.437,51.806,53.545,49.34,55.012,49.231Z" fill="#FFFFFF" fill-rule="evenodd"/><path d="M50.441,49.537a.721.721,0,0,1,.458.151c-.041.238-.334.106-.458,0Z" fill="#FFFFFF" fill-rule="evenodd"/><path d="M49.222,50.451c.046.4-.211.5-.609.456C48.746,50.684,48.841,50.424,49.222,50.451Z" fill="#FFFFFF" fill-rule="evenodd"/><path d="M52.88,52.584c.26-.056.286.119.3.3.016.39.566.244.763.456v.763H55.47a7.759,7.759,0,0,0-.153,2.133c-.506.235-.993-.141-1.524-.3V54.413A2,2,0,0,1,52.88,52.584Z" fill="#FFFFFF" fill-rule="evenodd"/><path d="M55.317,52.584V53.5c-.177-.023-.271.034-.3.153C54.391,53.567,54.381,52.336,55.317,52.584Z" fill="#FFFFFF" fill-rule="evenodd"/><path d="M51.508,53.5c.477-.068.486.327.458.762C51.7,54.121,51.437,53.977,51.508,53.5Z" fill="#FFFFFF" fill-rule="evenodd"/><path d="M50.137,54.108h.457c.4.59-.066,1.393-.153,1.981-.778.263-1.284-.231-1.523-.915C49.822,55.434,50.282,55.229,50.137,54.108Z" fill="#FFFFFF" fill-rule="evenodd"/><path d="M58.061,54.259c-.185.947.729.8.762,1.524-1.022-.359-1.72.229-2.438,0A2.437,2.437,0,0,1,58.061,54.259Z" fill="#FFFFFF" fill-rule="evenodd"/><path d="M51.357,55.479a.42.42,0,0,1-.458.3C50.827,55.458,51.116,55.493,51.357,55.479Z" fill="#FFFFFF" fill-rule="evenodd"/><path d="M45.261,55.783h.3v.306h-.3Z" fill="#FFFFFF" fill-rule="evenodd"/><path d="M61.107,56.393c-.324.362-1.3.085-1.219-.457C60.305,55.6,60.64,56.313,61.107,56.393Z" fill="#FFFFFF" fill-rule="evenodd"/><path d="M48.309,57.612c.177-.025.271.034.3.152a1.347,1.347,0,0,1-.3,1.219,2.013,2.013,0,0,1,.3,1.676,3.439,3.439,0,0,1-.913.3,3.529,3.529,0,0,0-.61-1.371,6.389,6.389,0,0,0-.153-1.829c.417.092.235.781.763.762C48.337,58.657,48.033,57.845,48.309,57.612Z" fill="#FFFFFF" fill-rule="evenodd"/><path d="M59.888,58.526c.246-.043.262.145.459.153C60.405,58.975,59.652,58.9,59.888,58.526Z" fill="#FFFFFF" fill-rule="evenodd"/><path d="M50.746,58.832H51.2c.044.244-.145.261-.152.456h-.3Z" fill="#FFFFFF" fill-rule="evenodd"/><path d="M48.918,60.812c.319-.065.4.1.609.152.04.5-.181.734-.609.761C48.587,61.408,48.994,61.292,48.918,60.812Z" fill="#FFFFFF" fill-rule="evenodd"/><path d="M46.784,66.6c-.177.634-.457,1.167-1.218,1.218C45.865,67.308,46.037,66.668,46.784,66.6Z" fill="#FFFFFF" fill-rule="evenodd"/></svg>