<?xml version="1.0" encoding="UTF-8"?>
<svg id="Layer_1" xmlns="http://www.w3.org/2000/svg" version="1.1" viewBox="0 0 408.26 145.46">
  <!-- Generator: Adobe Illustrator 30.5.1, SVG Export Plug-In . SVG Version: 2.1.4 Build 3)  -->
  <defs>
    <style>
      .st0 {
        fill: #fff;
      }
    </style>
  </defs>
  <g>
    <path class="st0" d="M183.86,70.4c-.1.3-.3.4-.6.6-.3.1-.6.2-.9.2s-.6-.1-.9-.2c-.3-.1-.5-.3-.7-.6l-17.1-38.7h-.2l.2,30.2c0,.7,0,1.4.1,2.1,0,.7.2,1.3.5,1.9s.8,1,1.4,1.3c.6.3,1.6.5,2.8.5.6,0,1,.1,1.3.2s.5.6.6,1.4c0,.4-.1.8-.3,1.1-.2.4-.6.5-1,.5-.8-.1-1.5-.1-2-.1s-1-.1-1.5-.1h-7.1c-.5,0-1.1,0-1.7.1-.6,0-1.3.1-2.1.1-.5,0-.9-.2-1.1-.5-.2-.4-.3-.7-.3-1.1,0-.9.2-1.3.6-1.4.3-.1.8-.2,1.3-.2,1.2,0,2.1-.2,2.8-.5.6-.3,1.1-.8,1.4-1.3.3-.6.5-1.2.5-1.9s.1-1.4.1-2.1l.2-30.2c0-1.2-.1-2.2-.3-2.9-.2-.7-.5-1.3-.9-1.7-.4-.4-1-.7-1.6-1-.6-.2-1.4-.4-2.2-.6-.7-.2-1.2-.3-1.5-.4s-.4-.6-.4-1.4c0-.9.3-1.3.9-1.4.6-.1,1.3-.1,2.2-.1,1.9,0,3.6.1,5.1.3,1.5.2,2.9.6,4.1,1.2,1.2.6,2.3,1.4,3.3,2.4,1,1.1,1.8,2.4,2.5,4.1l13.1,29.3h.2l15-36.9h8.7c1.4,0,3-.1,4.6-.2.5,0,.9.2,1.1.5.2.4.3.7.3,1.1-.1.9-.3,1.3-.6,1.4-.4.1-.8.2-1.3.2-1.2,0-2.2.2-2.8.5-.7.3-1.1.8-1.4,1.3-.3.6-.5,1.2-.6,1.9-.1.7-.1,1.4-.1,2.1v30.2c0,.7,0,1.4.1,2.1s.3,1.3.6,1.9.8,1,1.4,1.3c.7.3,1.6.5,2.8.5.5,0,.9.1,1.3.2.4.1.6.6.6,1.4,0,.4-.1.8-.3,1.1-.2.4-.6.5-1.1.5-1.6-.1-3.2-.2-4.6-.2h-4.5c-3,0-6.1.1-9.3.2-.5,0-.9-.2-1.1-.5-.2-.4-.3-.7-.3-1.1,0-.9.2-1.3.6-1.4.3-.1.8-.2,1.3-.2,1.2,0,2.2-.2,2.8-.5.7-.3,1.1-.8,1.4-1.3.3-.6.5-1.2.6-1.9.1-.7.1-1.4.1-2.1v-29.9h-.2l-15.9,38.7h0Z"/>
    <path class="st0" d="M252.86,63.5c0,3,2,4.5,6,4.5.6,0,.9.2,1.1.5s.2.6.2,1c0,.7-.4,1.1-1.3,1.3l-12.2.8c-.4,0-.6-.2-.6-.5v-5.4h-.2c-.8.7-1.5,1.4-2.3,2.1s-1.6,1.3-2.5,1.9-2,1-3.2,1.4-2.6.5-4.2.5c-3.5,0-6.2-1-8.2-3.1s-3-4.8-3-8.2v-15.9c0-.6-.1-1.2-.3-1.7s-.6-.9-1.1-1.1c-.5-.3-1.3-.4-2.4-.4-.5,0-.9-.1-1.3-.2s-.6-.6-.6-1.3c0-.3.1-.6.3-.8.2-.3.5-.4.9-.5,1.7-.3,3.1-.5,4.3-.8,1.1-.3,2-.5,2.7-.8.7-.2,1.3-.4,1.7-.6.4-.2.8-.3,1.3-.3.4-.1.7,0,1,.2s.4.6.4,1.2v23c0,1.3.2,2.4.6,3.3.4.9,1,1.7,1.7,2.2.7.6,1.5,1,2.4,1.3s1.8.4,2.6.4c1.3,0,2.5-.2,3.6-.6s2-.8,2.8-1.4,1.5-1.1,2-1.7c.5-.6.9-1.1,1.1-1.6v-17.9c0-.6-.1-1.2-.3-1.7s-.6-.9-1.1-1.1c-.5-.3-1.3-.4-2.4-.4-.5,0-.9-.1-1.3-.2s-.6-.6-.6-1.3c0-.3.1-.6.3-.8.2-.3.5-.4.9-.5,1.7-.3,3.1-.5,4.3-.8,1.1-.3,2-.5,2.7-.8.7-.2,1.3-.4,1.7-.6.4-.2.8-.3,1.3-.3s.7,0,1,.2.4.6.4,1.2v26.3h-.2Z"/>
    <path class="st0" d="M296.96,63.8c0,1.5.5,2.6,1.4,3.3.9.8,2.4,1.1,4.5,1.1.6,0,.9.1,1.1.4s.2.5.2.8c0,.7-.4,1.1-1.3,1.3l-12.1.8c-.4,0-.6-.2-.6-.5v-4.1h-.2c-1.3,1.3-2.9,2.4-4.8,3.3s-3.8,1.3-5.7,1.3c-2.1,0-4.2-.4-6.1-1.3s-3.6-2.1-5.1-3.7-2.6-3.5-3.5-5.7-1.3-4.7-1.3-7.4c0-2.3.4-4.6,1.3-6.8s2.1-4.1,3.6-5.8,3.4-3,5.5-4,4.5-1.5,7.1-1.5c1.6,0,3.2.2,4.8.6,1.5.4,2.9.9,4.1,1.6h.2v-13.5c0-.6-.1-1.2-.3-1.7-.2-.5-.6-.9-1.1-1.1-.5-.3-1.3-.4-2.4-.4-.5,0-.9-.1-1.3-.2s-.6-.6-.6-1.3c0-.3.1-.6.3-.8.2-.3.5-.4.9-.5,1.7-.3,3.1-.5,4.3-.8,1.1-.3,2-.5,2.7-.8.7-.2,1.3-.4,1.7-.6s.8-.3,1.3-.3c.4,0,.7,0,1,.2s.4.6.4,1.2v46.9h0ZM289.96,44c-.2-.6-.5-1.3-1-2-.4-.7-1-1.3-1.7-1.9-.7-.6-1.5-1-2.4-1.4s-2-.6-3.2-.6c-1.5,0-2.8.4-4.1,1.1-1.3.7-2.4,1.7-3.3,3.1-1,1.3-1.7,3-2.2,4.9-.5,2-.8,4.2-.8,6.7,0,1.8.2,3.6.6,5.2.4,1.7,1.1,3.2,2,4.4.9,1.3,2,2.3,3.3,3.1,1.3.8,2.9,1.2,4.8,1.2s3.5-.4,4.8-1.2c1.3-.8,2.4-1.7,3.3-2.6v-20h-.1,0Z"/>
    <path class="st0" d="M183.86,130.4c-.1.3-.3.4-.6.6-.3.1-.6.2-.9.2s-.6-.1-.9-.2c-.3-.1-.5-.3-.7-.6l-17.1-38.7h-.2l.2,30.2c0,.7,0,1.4.1,2.1,0,.7.2,1.3.5,1.9s.8,1,1.4,1.3c.6.3,1.6.5,2.8.5.6,0,1,.1,1.3.2s.5.6.6,1.4c0,.4-.1.8-.3,1.1-.2.4-.6.5-1,.5-.8-.1-1.5-.1-2-.1s-1-.1-1.5-.1h-7.1c-.5,0-1.1,0-1.7.1-.6,0-1.3.1-2.1.1-.5,0-.9-.2-1.1-.5-.2-.4-.3-.7-.3-1.1,0-.9.2-1.3.6-1.4.3-.1.8-.2,1.3-.2,1.2,0,2.1-.2,2.8-.5.6-.3,1.1-.8,1.4-1.3.3-.6.5-1.2.5-1.9s.1-1.4.1-2.1l.2-30.2c0-1.2-.1-2.2-.3-2.9-.2-.7-.5-1.3-.9-1.7-.4-.4-1-.7-1.6-1-.6-.2-1.4-.4-2.2-.6-.7-.2-1.2-.3-1.5-.4s-.4-.6-.4-1.4c0-.9.3-1.3.9-1.4.6-.1,1.3-.1,2.2-.1,1.9,0,3.6.1,5.1.3,1.5.2,2.9.6,4.1,1.2,1.2.6,2.3,1.4,3.3,2.4,1,1.1,1.8,2.4,2.5,4.1l13.1,29.3h.2l15-36.9h8.7c1.4,0,3-.1,4.6-.2.5,0,.9.2,1.1.5.2.4.3.7.3,1.1-.1.9-.3,1.3-.6,1.4-.4.1-.8.2-1.3.2-1.2,0-2.2.2-2.8.5-.7.3-1.1.8-1.4,1.3-.3.6-.5,1.2-.6,1.9-.1.7-.1,1.4-.1,2.1v30.2c0,.7,0,1.4.1,2.1s.3,1.3.6,1.9.8,1,1.4,1.3c.7.3,1.6.5,2.8.5.5,0,.9.1,1.3.2.4.1.6.6.6,1.4,0,.4-.1.8-.3,1.1-.2.4-.6.5-1.1.5-1.6-.1-3.2-.2-4.6-.2h-4.5c-3,0-6.1.1-9.3.2-.5,0-.9-.2-1.1-.5-.2-.4-.3-.7-.3-1.1,0-.9.2-1.3.6-1.4.3-.1.8-.2,1.3-.2,1.2,0,2.2-.2,2.8-.5.7-.3,1.1-.8,1.4-1.3.3-.6.5-1.2.6-1.9.1-.7.1-1.4.1-2.1v-29.9h-.2l-15.9,38.7h0Z"/>
    <path class="st0" d="M234.96,97.6c-1.5,0-2.8.5-4,1.4s-1.8,2.2-1.8,4c0,.6.1,1.2.4,1.6.3.5.5.9.8,1.2.3.3.6.6.8.8.3.2.4.3.4.4,0,.3-.3.6-.9,1.1-.6.5-1.4.8-2.4.8-1.6,0-2.8-.6-3.7-1.7s-1.3-2.5-1.3-3.9.4-2.6,1.1-3.6c.7-1,1.6-1.8,2.8-2.4,1.1-.6,2.4-1.1,3.9-1.3,1.4-.3,2.9-.4,4.4-.4,1.7,0,3.4.1,5.1.4s3.2.8,4.5,1.6c1.3.8,2.4,1.9,3.2,3.4.8,1.4,1.3,3.3,1.3,5.6v17.7c0,.4.1.9.2,1.4.1.5.3,1,.6,1.4s.7.8,1.2,1.2c.5.3,1.1.5,1.9.5.4,0,.6.1.8.2.2.1.3.5.3,1.1,0,.4-.2.7-.5.9s-.7.4-1.1.5c-.5.1-.9.2-1.4.3s-.9.1-1.2.1c-1.9,0-3.5-.5-5-1.6s-2.3-2.6-2.6-4.5c-.6,1-1.3,1.9-2.4,2.7-1,.8-2.1,1.4-3.3,1.9s-2.4.9-3.6,1.2c-1.2.3-2.4.4-3.5.4-1.3,0-2.5-.2-3.7-.7-1.1-.5-2.1-1.1-3-1.9-.8-.8-1.5-1.8-2-2.8-.5-1.1-.8-2.3-.8-3.5,0-1.8.4-3.4,1.3-4.6.9-1.3,2-2.3,3.4-3.1s2.9-1.4,4.6-1.9c1.7-.5,3.4-.8,5-1s3.2-.4,4.6-.5,2.5-.2,3.3-.3v-6c0-2.4-.6-4.2-1.7-5.6-1.1-1.8-3.1-2.5-6-2.5h0ZM242.76,113.5c-2.4.3-4.6.7-6.4,1.1-1.8.4-3.3.9-4.5,1.5s-2.1,1.4-2.7,2.3c-.6.9-.9,2-.9,3.3,0,1.6.5,3,1.4,4.2s2.1,1.7,3.6,1.7c1.3,0,2.5-.3,3.6-.8,1.2-.5,2.2-1.2,3.1-2.1.9-.9,1.6-1.9,2.1-3.1s.8-2.5.8-3.9v-4.2h-.1Z"/>
    <path class="st0" d="M269.86,99.3v23.1c0,.8.1,1.5.2,2.2.2.7.4,1.3.7,1.9.3.6.8,1,1.3,1.3.6.3,1.3.5,2.1.5.6,0,1.2,0,1.9-.1.7-.1,1.5-.3,2.3-.7.2-.1.4-.2.6-.3.2-.1.4-.1.6-.1.4,0,.7.2.9.5.2.3.4.7.5,1,.2.5,0,.8-.4,1.1-1.6,1-3,1.7-4.3,2s-2.8.5-4.4.5c-1.2,0-2.3-.2-3.3-.6-1.1-.4-2-1.1-2.9-1.9s-1.5-2-2.1-3.3c-.5-1.3-.8-2.9-.8-4.7v-22.6l-4.4.2c-.4,0-.6-.1-.8-.4-.2-.3-.3-.6-.3-1s.1-.8.3-1.1c.2-.3.4-.5.8-.6,1.4-.3,2.6-.7,3.4-1.2.9-.6,1.6-1.2,2.1-1.9.6-.7,1-1.6,1.4-2.5s.7-1.9,1.1-2.9c.2-.4.4-.7.6-.8.3-.1.6-.2,1-.2.3,0,.6.1,1,.2.4.2.6.4.6.8l-.5,8.7,8.9-.5c.5-.1.8.1.9.4.2.3.2.7.2,1.1,0,.6-.1,1.1-.3,1.6-.2.5-.4.7-.6.7l-8.3-.4h0Z"/>
    <path class="st0" d="M297.16,99.3v23.1c0,.8.1,1.5.2,2.2.2.7.4,1.3.7,1.9.3.6.8,1,1.3,1.3.6.3,1.3.5,2.1.5.6,0,1.2,0,1.9-.1.7-.1,1.5-.3,2.3-.7.2-.1.4-.2.6-.3.2-.1.4-.1.6-.1.4,0,.7.2.9.5.2.3.4.7.5,1,.2.5,0,.8-.4,1.1-1.6,1-3,1.7-4.3,2s-2.8.5-4.4.5c-1.2,0-2.3-.2-3.3-.6-1.1-.4-2-1.1-2.9-1.9s-1.5-2-2.1-3.3c-.5-1.3-.8-2.9-.8-4.7v-22.6l-4.4.2c-.4,0-.6-.1-.8-.4-.2-.3-.3-.6-.3-1s.1-.8.3-1.1c.2-.3.4-.5.8-.6,1.4-.3,2.6-.7,3.4-1.2.9-.6,1.6-1.2,2.1-1.9.6-.7,1-1.6,1.4-2.5s.7-1.9,1.1-2.9c.2-.4.4-.7.6-.8.3-.1.6-.2,1-.2.3,0,.6.1,1,.2.4.2.6.4.6.8l-.5,8.7,8.9-.5c.5-.1.8.1.9.4.2.3.2.7.2,1.1,0,.6-.1,1.1-.3,1.6-.2.5-.4.7-.6.7l-8.3-.4h0Z"/>
    <path class="st0" d="M343.66,123.7c-1.6,2.5-3.5,4.4-5.9,5.9-2.4,1.4-5.1,2.1-8.2,2.1-2.9,0-5.5-.5-7.8-1.4-2.2-1-4.1-2.3-5.5-4s-2.6-3.6-3.3-5.9c-.8-2.2-1.1-4.6-1.1-7.1,0-2.2.4-4.3,1.2-6.5.8-2.2,1.9-4.1,3.4-5.8,1.5-1.7,3.2-3.1,5.3-4.1,2.1-1,4.4-1.6,7.1-1.6,2.3,0,4.4.3,6.1,1,1.7.6,3.2,1.5,4.4,2.7s2.1,2.5,2.8,4.1c.7,1.6,1.1,3.3,1.3,5.1,0,1.8-.5,2.9-1.5,3.5s-2.3.8-3.8.8h-18.5c0,2.2.2,4.3.7,6.2.5,1.9,1.2,3.5,2.1,4.9,1,1.4,2.2,2.4,3.7,3.2,1.5.8,3.3,1.1,5.5,1.1s4-.5,5.5-1.4,3-2.5,4.4-4.8c.4-.5,1-.5,1.7-.1.4.3.7.6.8,1-.2.4-.2.8-.4,1.1h0ZM331.86,109.6c1.2,0,2.2-.2,2.9-.7.7-.5,1.1-1.3,1.2-2.5,0-1.1-.2-2.1-.5-3.1s-.8-1.9-1.4-2.7c-.6-.8-1.4-1.4-2.3-1.9s-2-.7-3.2-.7c-2.6,0-4.7,1-6.4,3-1.7,2-2.6,4.9-2.8,8.5h12.5v.1h0Z"/>
    <path class="st0" d="M353.46,105.5v-1.9c0-.6-.1-1.2-.3-1.7-.2-.5-.6-.9-1.1-1.1-.5-.3-1.3-.4-2.4-.4-.5,0-.9-.1-1.3-.2s-.6-.6-.6-1.3c0-.3.1-.6.3-.8.2-.3.5-.4.9-.5,1.7-.3,3.1-.5,4.3-.8,1.1-.3,2-.5,2.7-.8.7-.2,1.3-.4,1.7-.6.4-.2.8-.3,1.2-.3s.7,0,1,.2.4.6.4,1.2v4.7h.2c1.7-1.7,3.5-3.1,5.3-4.1,1.8-1.1,3.5-1.6,5-1.6.9,0,1.7.2,2.4.5.7.4,1.3.8,1.7,1.4.5.6.8,1.2,1,2,.2.7.3,1.5.3,2.2s-.1,1.3-.3,1.9c-.2.6-.5,1.2-.9,1.7s-.9,1-1.5,1.3-1.3.5-2.1.5-1.5-.2-1.9-.5c-.5-.3-.7-.6-.8-.7,0-.1.2-.4.7-.9s.7-1.1.7-1.9c0-.9-.2-1.6-.7-2.2s-1.1-.8-1.9-.8c-.9,0-2,.4-3.3,1.3s-2.6,1.9-3.8,3.1v20.4c0,.6.1,1.2.3,1.7.2.5.6.9,1.2,1.1.6.3,1.4.4,2.4.4.5,0,.8,0,1.2.1.3.1.5.5.6,1.3,0,.4-.1.8-.3,1.1s-.5.5-.9.5c-1.5-.1-2.8-.2-4.1-.2h-7.8c-1.2,0-2.6.1-4,.2-.4,0-.7-.2-.9-.5s-.3-.7-.3-1.1c.1-.8.3-1.2.6-1.3.3-.1.7-.1,1.2-.1,1.1,0,1.9-.1,2.4-.4s.9-.7,1.1-1.1c.2-.5.3-1,.3-1.7v-19.3h.1,0Z"/>
    <path class="st0" d="M394.16,131.7c-2,0-3.8-.2-5.5-.5-1.7-.4-3.1-.9-4.3-1.6-1.2-.7-2.2-1.5-2.8-2.5-.7-1-1-2.2-1-3.5,0-1.5.4-2.7,1.3-3.6s2-1.4,3.5-1.4c.9,0,1.7.2,2.2.7.6.5.9.8.9,1,0,.1-.1.2-.3.4-.2.2-.4.4-.6.6-.2.3-.4.6-.6,1.1s-.3.9-.3,1.5c0,1.5.7,2.7,2,3.6,1.3.9,3.4,1.4,6.1,1.4,2.4,0,4.2-.5,5.6-1.5,1.3-1,2-2.5,2-4.4,0-1.5-.5-2.7-1.5-3.5s-2.3-1.5-3.8-2.1-3.2-1.1-4.9-1.5-3.4-1.1-4.9-1.9-2.8-1.9-3.8-3.2c-1-1.3-1.5-3.1-1.5-5.3,0-1.7.4-3.1,1.2-4.4s1.9-2.3,3.2-3.2c1.3-.8,2.8-1.5,4.4-1.9s3.3-.6,4.9-.6c1.4,0,2.7.2,4.1.5,1.3.3,2.5.8,3.6,1.4,1,.6,1.9,1.4,2.5,2.2.6.9,1,1.9,1,3.2s-.4,2.5-1.2,3.5c-.8,1-1.9,1.5-3.3,1.5-.9,0-1.7-.2-2.2-.7-.6-.5-.9-.8-.9-1,0-.1.1-.2.3-.3.2-.2.5-.4.8-.7.3-.3.5-.6.8-1.1.2-.4.3-.9.3-1.5-.1-.7-.3-1.4-.6-1.9-.4-.6-.9-1-1.5-1.4s-1.3-.6-2.1-.8-1.5-.3-2.4-.3-1.8.1-2.7.3c-.9.2-1.6.5-2.3,1-.7.4-1.2.9-1.6,1.6-.4.6-.6,1.4-.6,2.2,0,1.1.2,2,.5,2.8.4.7.9,1.3,1.7,1.9.8.5,1.7,1,2.9,1.5s2.6.9,4.3,1.4c1.7.6,3.2,1.1,4.6,1.6s2.5,1.2,3.5,1.9c1,.7,1.8,1.6,2.3,2.7.6,1.1.8,2.4.8,4s-.4,3.1-1.1,4.4-1.7,2.5-2.9,3.5c-1.2,1-2.7,1.7-4.4,2.3-1.9.3-3.7.6-5.7.6h0Z"/>
  </g>
  <path class="st0" d="M131.56,75.8c-.3-3.5-1.5-6.9-2.9-10.2-4.4-10.1-10.7-19.2-17.2-28-1.2-1.6-2.51-3.13-3.5-4.8-.01-.02-.02-.03-.03-.05,1.18-.79,2.35-1.67,3.43-2.65,2.9-2.9,4.6-7.3,3.3-11.1-.6-1.8-2-3.4-3.7-4.3-2.3-1.1-5.1-.6-7.6-.1-.68.17-1.43.35-2.14.59-.08-1.22-.1-2.59-.04-4.2.06-1.59.85-2.91,1.37-4.09C92.56.3,79.86,0,67.96,0c-13.5,0-27.8.2-39.3,7.2-.7,2.8.9,4.7.3,7.5-.07.21-.1.38-.14.56-.96-.24-2.17-.38-3.16-.56-2.7-.6-5.6-1.1-8.1.1-1.9.9-3.3,2.6-4,4.6-1.4,4.1.5,8.9,3.6,12,1.06,1.06,2.56,2.24,3.86,3.13-3.16,5.31-6.61,10.35-9.86,15.47C4.86,60-.64,71.2.06,82.9c.9,14.6,11.1,26.7,20.9,37.4,6.4,7,13,13.9,21.1,18.9,8.1,4.9,17.9,7.7,27.2,5.5,5.7-1.4,10.7-4.5,15.7-7.5,12.9-8,26.2-16.3,35.3-28.5,5.2-7,8.8-15,10.7-23.5.5-3.2.9-6.3.6-9.4ZM105.06,21c1.5-.5,3.6-.6,4.4.8,1.1,1.7-.8,3.7-2.5,4.8-.61.44-1.3.8-1.93,1.15-1.1-1.99-1.64-3.22-2.45-5.34-.04-.12-.07-.24-.11-.36.82-.42,1.7-.78,2.59-1.05ZM85.46,65.2c.6.2,1,.7,1.5,1.1l-.4.1c.6.5.6,1.5.1,2.1-.4.5-1,.7-1.6.7.2.5,0,1.2-.5,1.4-.2.9-1,1.4-1.8,1.8-.1.1-.3.1-.4.1-.3,0-.5-.3-.5-.6s.2-.6.4-.7c.1-.1.2-.1.3-.2.4-.3,0-1,.3-1.4.1-.1.3-.2.3-.4.1-.2-.1-.4-.3-.5-.2-.1-.4-.1-.6-.2-.5-.3-.3-1-.2-1.6.1-.4.2-.8.5-1.1.2-.3.7-.5,1-.4.6-.4,1.3-.4,1.9-.2ZM75.96,40.1c.2-.5.7-.7,1-1.1.2-.4.2-.9.4-1.2.3-.6,1.1-.8,1.3-1.4.1-.2.1-.4.2-.5.2-.2.5-.1.8-.1.6,0,1.2-.6,1.8-.7.7-.1,1.4.4,1.9.9.3.3.6.6.9.8.1.1.2.2.2.4s-.2.3-.4.4c-.5.3-.7.9-.6,1.4l.1-.7c.3.2.2.8.1,1.1-.4,1-.8,2-1.2,3-.1.2-.1.4-.2.5v.6c0,.4-.1.8-.2,1.1-.1.2-.1.4-.2.7-.1.6-.4,1.2-1,1.3-.4.1-.7-.2-1.1-.3-.3-.1-.6,0-1,0-.7-.1-1.4-.5-1.9-1-.2-.1-.4-.3-.5-.5-.1-.2-.2-.4-.2-.7-.1-.6-.3-1.3-.2-2,0-.2.1-.4.1-.7.1-.3-.2-.8-.1-1.3ZM70.36,63.7c.2-.3.6-.5.7-.9.1-.3,0-.5-.1-.8-.4-2.2,2.3-4.2,1.7-6.4-.1-.4-.3-.7-.3-1.1,0-.7.7-1.2.9-1.8.1-.6-.3-1.2-.1-1.9.1-.4.4-.7.7-1.1.2-.4.3-1-.1-1.2,1.5-.6,3.3-.6,4.8,0,.5.2,1,.6,1,1.1l.1-.6c.9.7,1.1,2.2.3,3.1-.2.2-.4.4-.5.6-.3.7.8,1.5.5,2.3-.1.2-.3.3-.4.5-.1.2-.2.6-.3.8-.4.7-1.4.6-2.2.5-.8-.1-1.9.2-1.9,1-.1.5.4.9.9,1,.5.1,1,.3,1.2.7.2.4.1.9-.1,1.3-.2.5-.3.9-.5,1.4-.3.8-.6,1.6-.7,2.4-.2.9-.2,1.9-.9,2.5-.7.6-1.8.4-2.7,0-.7-.3-1.4-.7-1.9-1.3-.4-.6-.6-1.5-.1-2.1ZM55.86,62.6c.2-1,1.2-1.9.8-2.8.7-.1,1.5.3,2.2.2.7-.1,1.5-.8,1.2-1.5-.2-.5-.9-.5-1.2-.9-.4-.4-.4-1.2-.1-1.8.2-.6.6-1.1.7-1.7.2-1.1-.6-2.5.2-3.4.4-.4.9-.5,1.4-.8.5-.2.9-.8.7-1.3-.4-.7-1.6-.2-2.2-.8-.4-.4-.3-1.1-.1-1.6.4-1.2.7-2.4,1.1-3.6.4-1.2.8-2.6,1.9-3.3,1-.8,2.8-.6,3.2.7v-.4c.6.9.6,2,.2,3-.3.5-.7,1.1-.6,1.6.1.6.7.9.9,1.4.3.8-.3,1.6-.9,2.2s-1.4,1.2-1.4,2c.3.1.7.2,1,.5.3.3.3.7.1,1-.2.2-.4.2-.6.4-1,.7.2,2.6-.6,3.5-.4.5-1.2.6-1.4,1.2-.2.5.1.9.4,1.3.7,1,1.4,2,2.1,3-.9-.2-1.8.7-1.7,1.6.1.7.7,1.3.8,1.9.2,1-.7,1.9-1.6,2.5-.9.5-1.9,1-2.3,2-.1.1-.1.3-.3.4h-.3c-1.1-.3-2.3-.8-2.6-1.9-.2-.6-.1-1.2-.2-1.8-.4-.9-1-1.9-.8-2.8ZM19.16,22.4c.9-1.5,3.1-1.3,4.7-.8.63.19,1.39.51,2.1.82l-2.41,5.96c-.66-.33-1.32-.6-1.8-.87-1.8-1.1-3.8-3.3-2.6-5.1ZM87.86,88.4c-.1.5-.8.7-1.2.4-.8.8.9,2.1.5,3.2-.3.7-1.3.7-2,.5-1.2-.3-2.5-.6-3.3-1.6-.2-.3-.4-.6-.7-.7-.6-.2-1,.7-1.5,1.1-.9.8-2.5,0-2.5-1.2-.7.2-1.3.8-1.3,1.5.3,1,1.7,1,2.6.6.9-.4,1.9-1.2,2.9-.9.6.1,1.1.6,1.6.9.8.4,1.7.6,2.3,1.3.6.7.5,2.1-.4,2.1-.4,0-.8-.3-1.2-.3-.4-.1-1,.4-.7.7.9.2,1.8.2,2.7.1-.1.2-.1.3-.2.5-.4,1.3-.9,2.6-.8,3.9.1.9.3,1.8,0,2.6-.3.6-.9,1-1.3,1.6-.4.6-.3,1.6.4,1.7-.2.2-.5.3-.7.5.2,1-.6,2-1.4,2.6-.8.7-1.7,1.4-1.8,2.5-.3,0-.6.1-.9.1-.8,1.5-2.4,2.6-4.1,2.8v1.1c-1.6-.1-3.2.1-4.7.3-.4.1-.7.1-1.1,0-.2-.1-.4-.2-.5-.5l-.1.1c-1.2-1.3-2.4-2.6-3.6-4,.2-.8-.3-1.5-.8-2.1-.1-.2-.3-.4-.5-.5-.6-.4-1.4.4-1.4,1.2s.6,1.4,1.1,1.9c-.6,1-2.1-.1-3.1.4-.4.2-.7.7-1.1.8-.8.3-1.5-.4-2.3-.7-1.1-.4-2.4.1-3.6,0-1.9-.1-3.4-1.6-4.8-3-1.1-1.1-2.2-2.2-3.3-3.4-1.4-1.5-2.9-3-4-4.7-.7-1.1-1.2-2.4-1.7-3.6-.2-.4-.3-.7-.5-1.1-.1-.3-.3-.7-.4-1-.2-1-.1-2.1-.7-2.9-.2-.3-.5-.5-.7-.7-1.3-1.1-2.2-2.7-2.5-4.4-.1-.4-.1-.8-.3-1.2-.2-.4-.5-.7-.8-1-1.7-1.6-3.4-3.1-5.1-4.7-.8-.7-1.6-1.6-1.5-2.6.4.1,1-.2,1.3-.4.2.2.4.4.7.4.6-.1.8-.9.5-1.5-.3-.5-.9-.8-1.4-1.2-.5-.3-1-.8-1.1-1.4-.1-.6.4-1.2.9-1.4.5-.3,1.2-.3,1.8-.2.6,0,1.2.1,1.8.3,1.3.4,2.3,1.6,3.2,2.7.3.3.6.7.5,1.1-.1.6-.8,1-.7,1.5.1.4.4.6.7.8,1.1.9,1.4,2.6,2.4,3.5.1.1.3.2.4.4.1.2.2.5.2.7.1.9-.1,1.8-.5,2.7-.2.4-.5.8-.5,1.3-.1.8.4,1.9,1.2,1.6.7-.3,1.2-1.1,1.2-1.9.5-.1,1.2-.1,1.4.3.3.6-.6,1.4-.4,2.1.2.8,1.4.4,2.2.7.6.2,1,.8,1.5,1.3.4.5,1.1.9,1.7.6.7-1.5,1.7-2.9,2.8-4.1.3-.3.6-.6,1-.7.6-.1,1.1.5,1.5,1,.4.5,1.2.8,1.6.3-.7-2-1.3-4.6.2-6.2.9-.9,2.2-1.1,3.5-1.3.5-.1,1.1-.1,1.6,0,.8.2,1.3.9,1.8,1.5,1,1,2.3,1.8,3.6,2.3.2.4-.6,1.1-1.1,1-.5,0-1.2.1-1.2.6.4.9,1.1,1.7,2,2.1.2-.4.3-.8.3-1.2.5-.2,1-.5,1.4-.9v-2c-.5-.3-1.1-.5-1.4-1-.3-.5-.6-1.1-.3-1.7-.9,0-1.3-1.8-2.1-1.4-.3.2-.4.7-.7.8-.2.1-.5-.1-.7-.2-1.1-.8-2-1.8-2.6-3h-1.6c-.8-1-1-2.3-.7-3.5.2-1.2.9-2.3,1.5-3.4.6-.9,1.3-1.7,2.3-2,1.9-.4,3.4,1.7,5.3,2.2.6.2,1.2.2,1.7.4,1.4.5,2.2,1.8,3,3,.2-.1.5-.2.7-.4-.2-.7,0-1.5.4-2.2,1.3.1,2.7.3,3.9.8.2.1.4.2.6.4.2.2.2.5.4.7.4.6,1.2.5,1.9.6.7.1,1.3,1,.7,1.4,1-.1,2.2,0,2.8.9.3.5.3,1.1.5,1.6.4.8,1.3,1.1,2.1,1.5.8.4,1.5,1.3,1.1,2.1,2.1-.5,4.5.9,5.2,3.1-.6.1-1.2.3-1.5.8-.3.5,0,1.8.5,1.9ZM89.16,60.3c-.1.2-.2.5-.2.7-.4,1.1-1,2.1-1.8,2.8-.6-.5-.6-1.4-.6-2.2,0-.9-.1-1.7-.1-2.6,0-1-.1-2.1.4-3.1.3-.5.7-1,1.2-1.2.5-.2,1.2,0,1.5.5.3-.4.5-.7.8-1.1-.5-.3-1.1-.4-1.6-.7-.5-.3-1-.8-1-1.4,0-.8.8-1.4.5-2.1-.1-.2-.3-.5-.3-.7,0-.4.4-.6.5-1,.1-.3,0-.7,0-1.1,0-.8.5-1.6,1-2.2.5-.7,1.1-1.4,1.8-1.9,1-.6,2.2-.8,3.3-.5.3.7.3,1.5,0,2.2.4.2.6.6.7,1l-.1-.2c.5.7.2,1.6-.1,2.3-.3.7-.8,1.5-.7,2.3,0,.3.1.5,0,.8s-.4.4-.7.6c-.6.4-.9,1.1-1.2,1.8-.8,1.8-1.6,3.6-2.3,5.4-.1.3-.3.6-.5.9-.1.2-.3.4-.5.7ZM104.46,65.7c-.8-.1-1.2.8-1.4,1.6-.2.8-.5,1.7-1.2,1.8-.3,0-.5,0-.8.1-.5.2-.3,1-.1,1.5-.4,0-.8.1-1.2.1.3.4.1,1-.1,1.5-1,1.9-2.6,3.6-4.4,4.7-.5.3-1.1.7-1.2,1.3,0,.3,0,.6-.1.8-.1.2-.3.4-.5.5-1.1.8-2.2,1.5-3.4,2.1-.4-.2-.3-.8-.1-1.2.2-.4.5-.7.6-1.1.1-.5-.2-1.1-.2-1.6,0-.3.2-.6.4-.8.5-.8,1-1.5,1.5-2.3.4-.7.9-1.5.6-2.2.8,0,1.3-.9,1.5-1.7.2-.8.5-1.7,1.2-2,.2-.1.5-.1.7-.4.4-.5-.4-1.5.1-1.9.2-.2.5-.1.7-.3.3-.3,0-.8-.1-1.2-.2-.7.4-1.4,1.1-1.4.6-2.2,2.6-3.8,4.8-3.8l-.5-.1c1.2-.7,2.7.6,3,2s-.3,2.7-.9,4Z"/>
</svg>