<svg xmlns="http://www.w3.org/2000/svg" viewBox="0 0 408.136 145.391"><defs><style>.a{fill:none;}.b{fill:#e75450;}.c{fill:#fff;}</style></defs><path class="a" d="M19.141,22.342c-1.133,1.823.827,3.989,2.648,5.126.746.466,1.51.9,2.282,1.326a62.819,62.819,0,0,0,2.65-6.2,25.185,25.185,0,0,0-2.836-1.062C22.23,21.023,20.054,20.871,19.141,22.342Z"/><path class="a" d="M109.513,21.76c-.85-1.368-2.874-1.227-4.415-.756a23.158,23.158,0,0,0-2.909,1.115c.129.378.264.754.409,1.124a36.113,36.113,0,0,0,2.216,4.58c.756-.411,1.505-.837,2.235-1.293C108.744,25.472,110.567,23.457,109.513,21.76Z"/><path class="b" d="M131.626,75.768a33.543,33.543,0,0,0-2.941-10.2c-4.364-10.078-10.7-19.164-17.231-27.995-1.182-1.6-2.374-3.2-3.516-4.837a19.979,19.979,0,0,0,3.453-2.723c2.881-2.889,4.644-7.268,3.318-11.127A7.27,7.27,0,0,0,111,14.631c-2.34-1.078-5.073-.647-7.581-.059-.848.2-1.7.421-2.536.671a17.031,17.031,0,0,1,1.711-8.4C92.632.277,79.936.03,68.008,0,54.5-.029,40.189.152,28.678,7.229c-.646,2.793.926,4.65.28,7.443-.06.259-.123.517-.183.776-1.017-.315-2.049-.588-3.081-.831-2.695-.632-5.632-1.1-8.146.063a7.813,7.813,0,0,0-3.991,4.573c-1.424,4.147.47,8.853,3.566,11.958a21.837,21.837,0,0,0,3.991,3.1c-3.086,5.341-6.621,10.485-9.9,15.706C4.946,59.991-.644,71.172.06,82.927.932,97.482,11.122,109.581,21.008,120.3c6.422,6.963,13.039,13.931,21.128,18.861s17.941,7.669,27.151,5.452c5.654-1.361,10.707-4.468,15.651-7.528,12.926-8,26.172-16.291,35.25-28.485A60.8,60.8,0,0,0,130.84,85.071,31.3,31.3,0,0,0,131.626,75.768ZM105.1,21c1.541-.471,3.565-.612,4.415.756,1.054,1.7-.77,3.712-2.464,4.77-.73.456-1.479.882-2.235,1.293a36.113,36.113,0,0,1-2.216-4.58c-.145-.37-.28-.746-.409-1.124A23.158,23.158,0,0,1,105.1,21ZM85.528,65.226a4.719,4.719,0,0,1,1.5,1.14l-.38.147a1.627,1.627,0,0,1,.146,2.106,2.3,2.3,0,0,1-1.552.733,1.029,1.029,0,0,1-.513,1.358c-.153.86-1,1.364-1.765,1.751a.967.967,0,0,1-.448.142.588.588,0,0,1-.522-.585.793.793,0,0,1,.45-.689,1.529,1.529,0,0,0,.339-.174c.369-.319.005-1.016.3-1.409.1-.134.27-.218.319-.379.066-.215-.126-.428-.329-.514a3.37,3.37,0,0,1-.616-.232c-.454-.31-.346-1.015-.185-1.55a3.292,3.292,0,0,1,.487-1.105,1.062,1.062,0,0,1,1.037-.444A1.56,1.56,0,0,1,85.528,65.226ZM76.017,40.064c.162-.492.748-.692,1.01-1.136.219-.372.178-.856.379-1.238.3-.571,1.065-.784,1.295-1.389a1.244,1.244,0,0,1,.207-.475c.2-.2.529-.095.809-.095.648,0,1.152-.615,1.792-.727a2.5,2.5,0,0,1,1.946.932l.912.845a.5.5,0,0,1,.212.361c-.011.208-.245.3-.423.4a1.289,1.289,0,0,0-.582,1.436l.071-.734c.331.232.218.754.068,1.135q-.586,1.491-1.172,2.982a2.769,2.769,0,0,0-.172.546,5.573,5.573,0,0,0-.03.647,5.491,5.491,0,0,1-.218,1.147l-.174.66c-.147.558-.4,1.22-.96,1.3-.382.053-.734-.208-1.11-.294a6.887,6.887,0,0,0-.965-.05,4,4,0,0,1-1.943-.963,1.912,1.912,0,0,1-.478-.454,1.984,1.984,0,0,1-.237-.663,4.889,4.889,0,0,1-.171-1.963,4.078,4.078,0,0,0,.117-.654C76.212,41.091,75.852,40.564,76.017,40.064ZM70.4,63.673c.237-.309.612-.532.707-.913a2.028,2.028,0,0,0-.061-.8c-.35-2.232,2.306-4.2,1.711-6.376a3.616,3.616,0,0,1-.274-1.108c.037-.681.73-1.151.856-1.821.116-.614-.271-1.248-.13-1.856a4.266,4.266,0,0,1,.668-1.125c.225-.377.294-.951-.064-1.2a6.833,6.833,0,0,1,4.822.046c.489.192,1.035.581.963,1.113l.108-.574a2.19,2.19,0,0,1,.344,3.092,2,2,0,0,0-.478.611c-.266.748.8,1.538.459,2.253-.1.21-.3.349-.422.548-.149.249-.152.565-.281.825-.371.747-1.42.613-2.226.485s-1.946.187-1.857,1.022c-.1.483.41.862.869,1.008s1,.251,1.235.685a1.636,1.636,0,0,1-.087,1.291q-.251.7-.5,1.392a15.794,15.794,0,0,0-.713,2.376,3.972,3.972,0,0,1-.935,2.486,2.714,2.714,0,0,1-2.707,0,4.242,4.242,0,0,1-1.884-1.282A1.881,1.881,0,0,1,70.4,63.673ZM55.866,62.594c.194-.973,1.216-1.877.772-2.76.737-.057,1.466.264,2.2.2s1.516-.838,1.153-1.5c-.246-.452-.853-.536-1.2-.907a1.715,1.715,0,0,1-.149-1.751,8.693,8.693,0,0,0,.653-1.725c.166-1.145-.554-2.51.2-3.368a4.221,4.221,0,0,1,1.437-.763c.49-.243.943-.825.691-1.323-.371-.733-1.6-.229-2.184-.8-.409-.4-.264-1.1-.09-1.65l1.125-3.57a6.328,6.328,0,0,1,1.857-3.323c1.022-.766,2.794-.571,3.194.665l-.015-.441a3.067,3.067,0,0,1,.2,2.959c-.257.531-.687,1.059-.567,1.641s.719.9.94,1.438c.325.791-.273,1.65-.9,2.218S63.813,49,63.74,49.849a2.15,2.15,0,0,1,.971.488.783.783,0,0,1,.1,1.012c-.159.176-.408.226-.6.358-1.016.685.175,2.562-.6,3.522-.394.485-1.2.573-1.412,1.166a1.562,1.562,0,0,0,.4,1.335l2.073,2.988a1.486,1.486,0,0,0-1.659,1.6c.091.7.663,1.254.776,1.95.171,1.048-.732,1.942-1.62,2.482s-1.924,1.024-2.336,2c-.062.149-.124.322-.271.38a.515.515,0,0,1-.338-.027c-1.067-.339-2.28-.82-2.621-1.914a10.955,10.955,0,0,1-.153-1.774C56.312,64.455,55.677,63.545,55.866,62.594Zm-31.795-33.8c-.772-.422-1.536-.86-2.282-1.326-1.821-1.137-3.781-3.3-2.648-5.126.913-1.471,3.089-1.319,4.744-.813a25.185,25.185,0,0,1,2.836,1.062A62.819,62.819,0,0,1,24.071,28.794ZM87.938,88.371a.785.785,0,0,1-1.174.435c-.815.81.861,2.1.45,3.191-.277.733-1.284.7-2.032.53a5.4,5.4,0,0,1-3.258-1.581c-.21-.27-.4-.6-.729-.687-.638-.162-1.009.69-1.493,1.144a1.559,1.559,0,0,1-2.476-1.169,1.855,1.855,0,0,0-1.349,1.53c.3,1.006,1.7,1.041,2.63.6s1.854-1.152,2.854-.942a6.045,6.045,0,0,1,1.646.9A8.9,8.9,0,0,1,85.3,93.619c.6.655.493,2.051-.379,2.135-.423.04-.807-.253-1.226-.321s-.956.367-.706.72a6.947,6.947,0,0,0,2.652.117l-.18.519a10.227,10.227,0,0,0-.8,3.938,5.282,5.282,0,0,1-.045,2.574c-.286.611-.9.987-1.268,1.55s-.293,1.56.358,1.67l-.676.467c.238,1.031-.586,1.978-1.388,2.641s-1.729,1.4-1.8,2.458l-.948.087A5.458,5.458,0,0,1,74.8,115l.027,1.108a21.785,21.785,0,0,0-4.735.339,2.265,2.265,0,0,1-1.075.03.864.864,0,0,1-.508-.451l-.076.052-3.6-3.97a2.715,2.715,0,0,0-.752-2.118,1.613,1.613,0,0,0-.479-.487c-.646-.355-1.427.432-1.392,1.184a3.287,3.287,0,0,0,1.064,1.921c-.56.978-2.127-.081-3.121.414-.41.2-.667.659-1.088.84-.758.326-1.533-.367-2.308-.652-1.13-.416-2.374.06-3.571-.017-1.9-.121-3.424-1.581-4.777-2.956l-3.312-3.366a26.525,26.525,0,0,1-3.978-4.731,27.03,27.03,0,0,1-1.73-3.636l-.464-1.116a7.22,7.22,0,0,1-.368-1.027c-.241-.974-.1-2.1-.711-2.887a4.655,4.655,0,0,0-.746-.683A7.224,7.224,0,0,1,34.612,88.4a4.506,4.506,0,0,0-.266-1.192,3.331,3.331,0,0,0-.822-.995l-5.052-4.7a3.527,3.527,0,0,1-1.5-2.606,2.217,2.217,0,0,0,1.34-.4,1.16,1.16,0,0,0,.723.426c.6-.054.828-.916.544-1.461A3.482,3.482,0,0,0,28.216,76.3a2.055,2.055,0,0,1-1.1-1.388,1.521,1.521,0,0,1,.921-1.434,3.708,3.708,0,0,1,1.751-.236,6.378,6.378,0,0,1,1.792.278,7.952,7.952,0,0,1,3.222,2.653,1.5,1.5,0,0,1,.495,1.1c-.08.571-.791.957-.7,1.526.058.366.42.576.7.8,1.118.891,1.361,2.585,2.427,3.541a2.48,2.48,0,0,1,.414.405,1.512,1.512,0,0,1,.213.737,5.1,5.1,0,0,1-.5,2.651,4.169,4.169,0,0,0-.534,1.3c-.092.783.44,1.893,1.157,1.619A1.966,1.966,0,0,0,39.7,87.989c.506-.109,1.17-.146,1.4.331.312.647-.59,1.366-.379,2.054.248.809,1.434.449,2.226.686.618.186,1.011.787,1.452,1.27s1.138.892,1.7.575a18.2,18.2,0,0,1,2.75-4.1,1.658,1.658,0,0,1,.983-.655c.614-.062,1.079.523,1.518.97s1.223.78,1.616.291c-.74-2.05-1.282-4.642.22-6.183a5.78,5.78,0,0,1,3.5-1.306,3.8,3.8,0,0,1,1.632.015,4.924,4.924,0,0,1,1.846,1.454,9.891,9.891,0,0,0,3.625,2.324c.245.45-.618,1.073-1.118,1.038s-1.221.078-1.175.592a3.952,3.952,0,0,0,2.024,2.1,2.254,2.254,0,0,0,.326-1.213,4.037,4.037,0,0,0,1.354-.891l0-2.035a4.326,4.326,0,0,1-1.44-1,1.545,1.545,0,0,1-.271-1.664c-.9-.034-1.331-1.841-2.118-1.389-.312.179-.4.663-.737.779a.822.822,0,0,1-.7-.215,8.393,8.393,0,0,1-2.577-3.037l-1.578,0a4.392,4.392,0,0,1-.723-3.545A9.126,9.126,0,0,1,56.6,71.892a4.162,4.162,0,0,1,2.34-1.956c1.916-.405,3.441,1.688,5.329,2.217.565.158,1.162.172,1.719.357,1.355.451,2.209,1.793,2.953,3.044l.692-.358a2.874,2.874,0,0,1,.353-2.166,12.432,12.432,0,0,1,3.918.836,1.319,1.319,0,0,1,.57.353c.164.2.207.486.352.7.378.569,1.2.465,1.859.572s1.313,1.024.746,1.39c1.013-.05,2.232.006,2.753.9.287.491.271,1.115.528,1.624.4.785,1.31,1.09,2.066,1.514s1.484,1.31,1.119,2.111a4.684,4.684,0,0,1,5.222,3.086,2.583,2.583,0,0,0-1.529.789C87.237,87.386,87.367,88.254,87.938,88.371Zm1.275-28.049a3.33,3.33,0,0,0-.254.655,6.644,6.644,0,0,1-1.793,2.807,3.123,3.123,0,0,1-.646-2.192l-.09-2.6a6.465,6.465,0,0,1,.387-3.051,2.159,2.159,0,0,1,1.228-1.165,1.336,1.336,0,0,1,1.522.507l.812-1.108c-.509-.276-1.082-.406-1.589-.683a1.664,1.664,0,0,1-.966-1.363c.007-.752.756-1.439.5-2.144-.089-.248-.3-.456-.308-.72-.016-.387.387-.643.535-1a2.842,2.842,0,0,0,.023-1.12A3.757,3.757,0,0,1,89.6,44.926a8.048,8.048,0,0,1,1.823-1.9,3.924,3.924,0,0,1,3.319-.461,3.2,3.2,0,0,1,.02,2.233,1.526,1.526,0,0,1,.7,1.009l-.114-.2a2.389,2.389,0,0,1-.089,2.287,4.829,4.829,0,0,0-.7,2.258,1.652,1.652,0,0,1-.01.754c-.119.288-.438.415-.7.585a3.819,3.819,0,0,0-1.217,1.79Q91.457,56,90.288,58.725a3.916,3.916,0,0,1-.454.856A7.784,7.784,0,0,0,89.213,60.322Zm15.275,5.347c-.759-.058-1.2.848-1.4,1.605s-.5,1.679-1.248,1.794a2.456,2.456,0,0,0-.776.089c-.476.245-.346.971-.145,1.479l-1.182.127c.333.422.124,1.049-.128,1.526a12.423,12.423,0,0,1-4.4,4.738c-.509.315-1.1.677-1.184,1.282a3.7,3.7,0,0,1-.06.806,1.207,1.207,0,0,1-.461.5,27.68,27.68,0,0,1-3.359,2.108c-.353-.242-.288-.806-.072-1.181a3.771,3.771,0,0,0,.621-1.129c.1-.539-.234-1.084-.156-1.626a2.163,2.163,0,0,1,.393-.848l1.5-2.292A2.482,2.482,0,0,0,93,72.4c.784-.008,1.26-.881,1.491-1.652s.469-1.67,1.187-1.993c.242-.109.533-.148.7-.359.411-.526-.368-1.491.139-1.919.21-.178.549-.138.737-.34.279-.3-.009-.774-.1-1.179a1.187,1.187,0,0,1,1.091-1.4,5.221,5.221,0,0,1,4.809-3.812l-.481-.085c1.215-.664,2.75.578,2.97,1.978A6.928,6.928,0,0,1,104.488,65.669Z"/><path class="c" d="M68.448,115.648a.578.578,0,0,0,.06.378l.651-.445Z"/><path class="b" d="M183.862,70.377a1.037,1.037,0,0,1-.607.569,2.273,2.273,0,0,1-1.824,0,1.385,1.385,0,0,1-.684-.569l-17.1-38.684h-.228l.151,30.171q0,1.065.077,2.128a4.575,4.575,0,0,0,.532,1.9,3.236,3.236,0,0,0,1.406,1.33,6.16,6.16,0,0,0,2.773.494,4.742,4.742,0,0,1,1.331.151c.329.1.543.583.646,1.445a2.062,2.062,0,0,1-.342,1.139,1.139,1.139,0,0,1-1.026.533q-1.218-.076-2.014-.115l-1.52-.075c-.483-.027-.976-.039-1.482-.039h-3.914c-.583,0-1.14.012-1.673.039l-1.71.075q-.911.039-2.128.115a1.12,1.12,0,0,1-1.063-.533,2.247,2.247,0,0,1-.3-1.139c.05-.862.239-1.342.57-1.445a4.725,4.725,0,0,1,1.33-.151,6.171,6.171,0,0,0,2.774-.494,3.244,3.244,0,0,0,1.405-1.33,4.59,4.59,0,0,0,.533-1.9c.049-.709.076-1.418.076-2.128L160,31.693a10.9,10.9,0,0,0-.305-2.888,3.6,3.6,0,0,0-.949-1.672,4.551,4.551,0,0,0-1.6-.951,13.78,13.78,0,0,0-2.242-.57,12.642,12.642,0,0,1-1.481-.379c-.279-.1-.418-.557-.418-1.369,0-.86.291-1.33.874-1.405a17.144,17.144,0,0,1,2.166-.115,34.514,34.514,0,0,1,5.092.343,15.8,15.8,0,0,1,4.141,1.177,9.913,9.913,0,0,1,3.307,2.433,14.54,14.54,0,0,1,2.508,4.1l13.072,29.335h.228L199.366,22.8H203.7q2.281,0,4.447-.039t4.6-.19a1.124,1.124,0,0,1,1.065.533,2.264,2.264,0,0,1,.3,1.139c-.05.863-.254,1.344-.607,1.445a4.744,4.744,0,0,1-1.292.151,6.453,6.453,0,0,0-2.813.494,3.235,3.235,0,0,0-1.444,1.33,5.065,5.065,0,0,0-.569,1.9,19.975,19.975,0,0,0-.114,2.128V61.864a19.947,19.947,0,0,0,.114,2.128,5.043,5.043,0,0,0,.569,1.9,3.218,3.218,0,0,0,1.444,1.33,6.424,6.424,0,0,0,2.813.494,4.823,4.823,0,0,1,1.292.151c.353.1.557.583.607,1.445a2.256,2.256,0,0,1-.3,1.139,1.124,1.124,0,0,1-1.065.533q-2.433-.153-4.636-.19t-4.484-.039q-4.483,0-9.348.229a1.119,1.119,0,0,1-1.063-.533,2.248,2.248,0,0,1-.305-1.139c.05-.862.241-1.342.571-1.445a4.72,4.72,0,0,1,1.33-.151,6.42,6.42,0,0,0,2.811-.494,3.221,3.221,0,0,0,1.445-1.33,5.062,5.062,0,0,0,.57-1.9,20.211,20.211,0,0,0,.113-2.128V31.693h-.227Z"/><path class="b" d="M252.947,63.536q0,4.487,6,4.485c.557,0,.912.151,1.065.456a2.19,2.19,0,0,1,.227.988q0,1.064-1.292,1.291l-12.236.836c-.405,0-.62-.151-.646-.455s-.038-.658-.038-1.065V65.817h-.152q-1.14,1.065-2.279,2.089a16.216,16.216,0,0,1-2.546,1.863,14.036,14.036,0,0,1-3.231,1.368,15.018,15.018,0,0,1-4.179.531,10.91,10.91,0,0,1-8.247-3.115,11.335,11.335,0,0,1-3-8.209v-16a3.882,3.882,0,0,0-.342-1.672,2.5,2.5,0,0,0-1.141-1.14,5.341,5.341,0,0,0-2.393-.418,3.937,3.937,0,0,1-1.254-.19q-.57-.187-.571-1.33a1.311,1.311,0,0,1,.3-.836,1.628,1.628,0,0,1,.912-.531q2.583-.38,4.256-.8t2.736-.76c.709-.227,1.28-.418,1.71-.569a5.95,5.95,0,0,1,1.254-.3,1.39,1.39,0,0,1,1.027.228,1.436,1.436,0,0,1,.418,1.215V60.269a7.585,7.585,0,0,0,.645,3.267,6.573,6.573,0,0,0,1.672,2.242,6.662,6.662,0,0,0,2.356,1.292,8.664,8.664,0,0,0,2.622.418,10.553,10.553,0,0,0,3.573-.57,12.087,12.087,0,0,0,2.811-1.406,10.521,10.521,0,0,0,1.977-1.709,6.572,6.572,0,0,0,1.063-1.559v-17.9a3.868,3.868,0,0,0-.342-1.672,2.5,2.5,0,0,0-1.139-1.14,5.345,5.345,0,0,0-2.4-.418,3.937,3.937,0,0,1-1.254-.19q-.569-.187-.57-1.33a1.313,1.313,0,0,1,.305-.836,1.625,1.625,0,0,1,.911-.531q2.585-.38,4.257-.8t2.735-.76c.709-.227,1.279-.418,1.71-.569a5.965,5.965,0,0,1,1.254-.3,1.386,1.386,0,0,1,1.026.228,1.43,1.43,0,0,1,.418,1.215Z"/><path class="b" d="M296.951,63.764a4.051,4.051,0,0,0,1.406,3.345,7.185,7.185,0,0,0,4.522,1.139c.558,0,.912.141,1.064.418a1.661,1.661,0,0,1,.228.8q0,1.064-1.292,1.291l-12.084.836c-.405,0-.621-.151-.646-.455s-.038-.658-.038-1.065v-3.04h-.227a16.909,16.909,0,0,1-4.788,3.306,13.211,13.211,0,0,1-5.7,1.33,14.366,14.366,0,0,1-6.081-1.33,15.862,15.862,0,0,1-5.091-3.724,17.8,17.8,0,0,1-3.5-5.737,20.258,20.258,0,0,1-1.292-7.373,18.236,18.236,0,0,1,10.487-16.567,16.237,16.237,0,0,1,7.068-1.521,19.876,19.876,0,0,1,4.75.57,16.043,16.043,0,0,1,4.067,1.559h.227V23.979a3.868,3.868,0,0,0-.342-1.672,2.475,2.475,0,0,0-1.139-1.14,5.345,5.345,0,0,0-2.395-.418,3.909,3.909,0,0,1-1.254-.191c-.38-.125-.57-.57-.57-1.329a1.307,1.307,0,0,1,.305-.836,1.626,1.626,0,0,1,.912-.532q2.582-.38,4.256-.8t2.735-.761q1.063-.342,1.71-.569a6.1,6.1,0,0,1,1.255-.3,1.4,1.4,0,0,1,1.025.228,1.434,1.434,0,0,1,.418,1.217ZM290.035,44a9.949,9.949,0,0,0-.95-1.976,7.4,7.4,0,0,0-1.672-1.9,9.4,9.4,0,0,0-2.432-1.406,8.524,8.524,0,0,0-3.23-.57,8.262,8.262,0,0,0-4.1,1.064A10.354,10.354,0,0,0,274.3,42.3a15.3,15.3,0,0,0-2.242,4.94,25.282,25.282,0,0,0-.8,6.65,20.974,20.974,0,0,0,.645,5.244,13.869,13.869,0,0,0,1.977,4.445,10.346,10.346,0,0,0,3.344,3.117,9.227,9.227,0,0,0,4.75,1.177,8.942,8.942,0,0,0,4.788-1.177,16.383,16.383,0,0,0,3.267-2.622Z"/><path class="b" d="M183.862,130.377a1.037,1.037,0,0,1-.607.569,2.273,2.273,0,0,1-1.824,0,1.385,1.385,0,0,1-.684-.569l-17.1-38.684h-.228l.151,30.171q0,1.065.077,2.128a4.575,4.575,0,0,0,.532,1.9,3.236,3.236,0,0,0,1.406,1.33,6.16,6.16,0,0,0,2.773.494,4.742,4.742,0,0,1,1.331.151c.329.1.543.583.646,1.445a2.062,2.062,0,0,1-.342,1.139,1.139,1.139,0,0,1-1.026.533q-1.218-.077-2.014-.115l-1.52-.075c-.483-.027-.976-.039-1.482-.039h-3.914c-.583,0-1.14.012-1.673.039l-1.71.075q-.911.039-2.128.115a1.12,1.12,0,0,1-1.063-.533,2.247,2.247,0,0,1-.3-1.139c.05-.862.239-1.342.57-1.445a4.725,4.725,0,0,1,1.33-.151,6.171,6.171,0,0,0,2.774-.494,3.244,3.244,0,0,0,1.405-1.33,4.59,4.59,0,0,0,.533-1.9c.049-.709.076-1.418.076-2.128L160,91.693a10.9,10.9,0,0,0-.305-2.888,3.6,3.6,0,0,0-.949-1.672,4.551,4.551,0,0,0-1.6-.951,13.78,13.78,0,0,0-2.242-.57,12.642,12.642,0,0,1-1.481-.379c-.279-.1-.418-.557-.418-1.369,0-.86.291-1.33.874-1.405a17.144,17.144,0,0,1,2.166-.115,34.514,34.514,0,0,1,5.092.343,15.8,15.8,0,0,1,4.141,1.177,9.913,9.913,0,0,1,3.307,2.433,14.54,14.54,0,0,1,2.508,4.1l13.072,29.335h.228L199.366,82.8H203.7q2.281,0,4.447-.039t4.6-.19a1.124,1.124,0,0,1,1.065.533,2.264,2.264,0,0,1,.3,1.139c-.05.863-.254,1.344-.607,1.445a4.744,4.744,0,0,1-1.292.151,6.453,6.453,0,0,0-2.813.494,3.235,3.235,0,0,0-1.444,1.33,5.065,5.065,0,0,0-.569,1.9,19.975,19.975,0,0,0-.114,2.128v30.171a19.947,19.947,0,0,0,.114,2.128,5.043,5.043,0,0,0,.569,1.9,3.218,3.218,0,0,0,1.444,1.33,6.424,6.424,0,0,0,2.813.494,4.823,4.823,0,0,1,1.292.151c.353.1.557.583.607,1.445a2.256,2.256,0,0,1-.3,1.139,1.124,1.124,0,0,1-1.065.533q-2.433-.153-4.636-.19t-4.484-.039q-4.483,0-9.348.229a1.119,1.119,0,0,1-1.063-.533,2.248,2.248,0,0,1-.305-1.139c.05-.862.241-1.342.571-1.445a4.72,4.72,0,0,1,1.33-.151,6.42,6.42,0,0,0,2.811-.494,3.221,3.221,0,0,0,1.445-1.33,5.062,5.062,0,0,0,.57-1.9,20.211,20.211,0,0,0,.113-2.128V91.693h-.227Z"/><path class="b" d="M235.01,97.62a6.559,6.559,0,0,0-4.029,1.368,4.645,4.645,0,0,0-1.824,3.953,3.439,3.439,0,0,0,.38,1.633,4.8,4.8,0,0,0,.836,1.178,9.779,9.779,0,0,0,.837.76q.379.3.38.381,0,.381-.874,1.139a3.528,3.528,0,0,1-2.4.761,4.244,4.244,0,0,1-3.685-1.748,6.5,6.5,0,0,1-1.254-3.877,6.02,6.02,0,0,1,1.063-3.609,7.964,7.964,0,0,1,2.775-2.395,13.729,13.729,0,0,1,3.876-1.33,23.126,23.126,0,0,1,4.37-.418,31,31,0,0,1,5.092.417,12.348,12.348,0,0,1,4.484,1.63,9.457,9.457,0,0,1,3.23,3.375,11.192,11.192,0,0,1,1.253,5.649v17.668a5.67,5.67,0,0,0,.191,1.365,4.589,4.589,0,0,0,.645,1.441,4.142,4.142,0,0,0,1.216,1.175,3.423,3.423,0,0,0,1.9.493,1.555,1.555,0,0,1,.836.194c.2.13.3.482.3,1.052a1.086,1.086,0,0,1-.456.9,3.41,3.41,0,0,1-1.139.545,8.973,8.973,0,0,1-1.407.273,11.614,11.614,0,0,1-1.177.076,8.206,8.206,0,0,1-5.016-1.634,6.412,6.412,0,0,1-2.584-4.522,8.364,8.364,0,0,1-2.357,2.66,17.234,17.234,0,0,1-3.305,1.939,18.035,18.035,0,0,1-7.107,1.557,9.355,9.355,0,0,1-3.685-.722,9.4,9.4,0,0,1-4.979-4.788,8.264,8.264,0,0,1-.759-3.533,7.885,7.885,0,0,1,1.33-4.637,10.778,10.778,0,0,1,3.381-3.115,18.272,18.272,0,0,1,4.6-1.9,40.782,40.782,0,0,1,5.017-1.027q2.467-.341,4.559-.456t3.307-.265v-6a8.247,8.247,0,0,0-1.748-5.586Q239.341,97.622,235.01,97.62Zm7.828,15.884q-3.649.457-6.385,1.065a19.257,19.257,0,0,0-4.521,1.519,6.943,6.943,0,0,0-2.7,2.28,5.767,5.767,0,0,0-.912,3.269,6.578,6.578,0,0,0,1.368,4.18,4.322,4.322,0,0,0,3.573,1.748,9.053,9.053,0,0,0,3.647-.76,10.2,10.2,0,0,0,3.078-2.053,9.236,9.236,0,0,0,2.09-3.115,9.994,9.994,0,0,0,.761-3.877Z"/><path class="b" d="M269.894,99.293v23.1a10.032,10.032,0,0,0,.227,2.166,6.318,6.318,0,0,0,.723,1.861,3.679,3.679,0,0,0,1.33,1.33,4.122,4.122,0,0,0,2.128.494,16.964,16.964,0,0,0,1.861-.113,7.464,7.464,0,0,0,2.318-.723c.2-.1.406-.189.609-.265a1.687,1.687,0,0,1,.607-.115,1,1,0,0,1,.912.5,7.982,7.982,0,0,1,.533,1.026.829.829,0,0,1-.38,1.063,13.961,13.961,0,0,1-4.332,1.976,19.592,19.592,0,0,1-4.408.457,8.855,8.855,0,0,1-3.344-.646,8.671,8.671,0,0,1-2.889-1.938,9.164,9.164,0,0,1-2.052-3.307,13.2,13.2,0,0,1-.759-4.673V99.141l-4.409.152a.882.882,0,0,1-.8-.418,1.727,1.727,0,0,1-.266-.951,2.288,2.288,0,0,1,.266-1.1,1.274,1.274,0,0,1,.8-.646,9.274,9.274,0,0,0,3.42-1.215,8.27,8.27,0,0,0,2.128-1.938,9.866,9.866,0,0,0,1.368-2.509q.531-1.4,1.065-2.926a1.32,1.32,0,0,1,.645-.8,2.469,2.469,0,0,1,1.027-.19,2.8,2.8,0,0,1,1.025.227.834.834,0,0,1,.57.836l-.532,8.664,8.893-.531a.809.809,0,0,1,.912.379,2.371,2.371,0,0,1,.227,1.064,4.477,4.477,0,0,1-.265,1.559q-.269.721-.647.722Z"/><path class="b" d="M297.178,99.293v23.1a10.032,10.032,0,0,0,.227,2.166,6.346,6.346,0,0,0,.723,1.861,3.679,3.679,0,0,0,1.33,1.33,4.125,4.125,0,0,0,2.128.494,16.95,16.95,0,0,0,1.861-.113,7.477,7.477,0,0,0,2.319-.723,6.549,6.549,0,0,1,.608-.265,1.687,1.687,0,0,1,.607-.115,1,1,0,0,1,.913.5,8.1,8.1,0,0,1,.532,1.026.829.829,0,0,1-.38,1.063,13.95,13.95,0,0,1-4.332,1.976,19.586,19.586,0,0,1-4.408.457,8.855,8.855,0,0,1-3.344-.646,8.681,8.681,0,0,1-2.889-1.938,9.148,9.148,0,0,1-2.051-3.307,13.181,13.181,0,0,1-.76-4.673V99.141l-4.408.152a.883.883,0,0,1-.8-.418,1.727,1.727,0,0,1-.266-.951,2.288,2.288,0,0,1,.266-1.1,1.273,1.273,0,0,1,.8-.646,9.269,9.269,0,0,0,3.419-1.215,8.27,8.27,0,0,0,2.128-1.938,9.9,9.9,0,0,0,1.369-2.509q.529-1.4,1.064-2.926a1.318,1.318,0,0,1,.646-.8,2.464,2.464,0,0,1,1.026-.19,2.793,2.793,0,0,1,1.025.227.834.834,0,0,1,.571.836l-.533,8.664,8.893-.531a.809.809,0,0,1,.912.379,2.371,2.371,0,0,1,.228,1.064,4.477,4.477,0,0,1-.266,1.559q-.269.721-.647.722Z"/><path class="b" d="M343.689,123.689a17.672,17.672,0,0,1-5.927,5.852,15.749,15.749,0,0,1-8.208,2.127,19.433,19.433,0,0,1-7.752-1.443,15.365,15.365,0,0,1-5.549-3.952,17.111,17.111,0,0,1-3.344-5.853,21.74,21.74,0,0,1-1.139-7.067,18.826,18.826,0,0,1,1.177-6.5,18.347,18.347,0,0,1,3.382-5.777,17.015,17.015,0,0,1,5.32-4.1,15.6,15.6,0,0,1,7.069-1.559,17.973,17.973,0,0,1,6.117.95,12.038,12.038,0,0,1,7.221,6.726,16.055,16.055,0,0,1,1.254,5.093q0,2.661-1.483,3.5a7.755,7.755,0,0,1-3.838.836H319.522a26.017,26.017,0,0,0,.683,6.156,14.178,14.178,0,0,0,2.128,4.864,9.875,9.875,0,0,0,3.725,3.193,12.126,12.126,0,0,0,5.471,1.139A10.443,10.443,0,0,0,337,126.5a14.129,14.129,0,0,0,4.408-4.787q.608-.759,1.672-.076a1.622,1.622,0,0,1,.761.988A1.283,1.283,0,0,1,343.689,123.689Zm-11.78-14.06a5.064,5.064,0,0,0,2.888-.723,3.117,3.117,0,0,0,1.217-2.469,10.831,10.831,0,0,0-.456-3.117,8.244,8.244,0,0,0-1.369-2.7,6.558,6.558,0,0,0-2.28-1.863,7.061,7.061,0,0,0-3.191-.684,7.921,7.921,0,0,0-6.385,3.04q-2.508,3.042-2.811,8.513Z"/><path class="b" d="M353.493,105.525v-1.939a3.871,3.871,0,0,0-.342-1.672,2.484,2.484,0,0,0-1.14-1.139,5.324,5.324,0,0,0-2.394-.418,3.936,3.936,0,0,1-1.254-.191c-.38-.125-.57-.57-.57-1.33a1.313,1.313,0,0,1,.3-.836,1.632,1.632,0,0,1,.912-.531q2.583-.381,4.257-.8T356,95.91q1.063-.342,1.672-.57a5.456,5.456,0,0,1,1.216-.3,1.4,1.4,0,0,1,1.026.228,1.437,1.437,0,0,1,.418,1.217v4.712h.229a29.1,29.1,0,0,1,5.319-4.142,9.949,9.949,0,0,1,5.016-1.635,5.013,5.013,0,0,1,4.1,1.939,6.132,6.132,0,0,1,1.026,1.975,7.534,7.534,0,0,1,.342,2.242,6.334,6.334,0,0,1-.3,1.938,5.746,5.746,0,0,1-.912,1.748,4.7,4.7,0,0,1-1.52,1.293,4.395,4.395,0,0,1-2.128.494,3.372,3.372,0,0,1-1.938-.494c-.482-.33-.748-.57-.8-.723,0-.1.239-.4.721-.912a2.649,2.649,0,0,0,.722-1.9,3.255,3.255,0,0,0-.722-2.2,2.434,2.434,0,0,0-1.938-.836,6.637,6.637,0,0,0-3.306,1.292,22.964,22.964,0,0,0-3.838,3.116v20.481a3.866,3.866,0,0,0,.342,1.673,2.446,2.446,0,0,0,1.178,1.139,5.589,5.589,0,0,0,2.432.418,5.3,5.3,0,0,1,1.178.115q.494.112.57,1.254a1.871,1.871,0,0,1-.3,1.063,1.023,1.023,0,0,1-.911.457q-2.207-.153-4.067-.19t-3.914-.039q-2.052,0-3.876.039t-4.028.19a1.023,1.023,0,0,1-.912-.457,1.871,1.871,0,0,1-.3-1.063q.153-1.14.608-1.254a5.19,5.19,0,0,1,1.216-.115,5.324,5.324,0,0,0,2.394-.418,2.47,2.47,0,0,0,1.14-1.139,3.866,3.866,0,0,0,.342-1.673V105.525Z"/><path class="b" d="M394.152,131.668a26.5,26.5,0,0,1-5.472-.531,15.306,15.306,0,0,1-4.332-1.559,8.19,8.19,0,0,1-2.85-2.546,6.094,6.094,0,0,1-1.026-3.5,4.906,4.906,0,0,1,1.33-3.571,4.607,4.607,0,0,1,3.458-1.369,3.407,3.407,0,0,1,2.242.723q.873.723.874,1.025c0,.1-.089.228-.266.381a5.259,5.259,0,0,0-.608.645,4.212,4.212,0,0,0-.608,1.065,3.851,3.851,0,0,0-.266,1.481,4.148,4.148,0,0,0,2.014,3.572q2.012,1.37,6.118,1.369a9.081,9.081,0,0,0,5.586-1.521,5.184,5.184,0,0,0,2.014-4.408,4.218,4.218,0,0,0-1.52-3.5,13.52,13.52,0,0,0-3.8-2.051q-2.28-.837-4.94-1.52a22.223,22.223,0,0,1-4.94-1.9,11.626,11.626,0,0,1-3.8-3.192,8.505,8.505,0,0,1-1.52-5.321,8,8,0,0,1,1.216-4.407,10.248,10.248,0,0,1,3.192-3.154,14.907,14.907,0,0,1,4.408-1.862,20.258,20.258,0,0,1,4.94-.609,18.36,18.36,0,0,1,4.066.457,12.491,12.491,0,0,1,3.572,1.367,8.014,8.014,0,0,1,2.508,2.243,5.609,5.609,0,0,1-.266,6.611,4.093,4.093,0,0,1-3.344,1.482,3.385,3.385,0,0,1-2.242-.727q-.874-.729-.874-1.034,0-.077.342-.345a8.6,8.6,0,0,0,.76-.689,4.463,4.463,0,0,0,.76-1.072,3.168,3.168,0,0,0,.342-1.494,3.835,3.835,0,0,0-.646-1.914,4.519,4.519,0,0,0-1.482-1.379,7.358,7.358,0,0,0-2.052-.8,10.423,10.423,0,0,0-5.016.077,9.052,9.052,0,0,0-2.318.955,4.836,4.836,0,0,0-1.634,1.568,3.964,3.964,0,0,0-.608,2.178,6.2,6.2,0,0,0,.532,2.754,5.062,5.062,0,0,0,1.672,1.872,12.545,12.545,0,0,0,2.926,1.454q1.785.65,4.294,1.414,2.508.836,4.56,1.634a15.068,15.068,0,0,1,3.534,1.9,7.8,7.8,0,0,1,2.318,2.736,8.707,8.707,0,0,1,.836,3.991,9.365,9.365,0,0,1-1.064,4.445,10.624,10.624,0,0,1-2.926,3.459,14.479,14.479,0,0,1-4.408,2.279A17.835,17.835,0,0,1,394.152,131.668Z"/></svg>